<svg xmlns="http://www.w3.org/2000/svg" xmlns:xlink="http://www.w3.org/1999/xlink" width="40" zoomAndPan="magnify" viewBox="0 0 30 30.000001" height="40" preserveAspectRatio="xMidYMid meet" version="1.0"><defs><g><g id="id1"/></g><clipPath id="id2"><path d="M 10 4.382812 L 21 4.382812 L 21 16 L 10 16 Z M 10 4.382812 " clip-rule="nonzero"/></clipPath><clipPath id="id3"><path d="M 9.390625 9 L 10 9 L 10 10 L 9.390625 10 Z M 9.390625 9 " clip-rule="nonzero"/></clipPath><clipPath id="id4"><path d="M 9.390625 10 L 10 10 L 10 11 L 9.390625 11 Z M 9.390625 10 " clip-rule="nonzero"/></clipPath><clipPath id="id5"><path d="M 9.390625 8 L 11 8 L 11 10 L 9.390625 10 Z M 9.390625 8 " clip-rule="nonzero"/></clipPath><clipPath id="id6"><path d="M 9.390625 10 L 10 10 L 10 12 L 9.390625 12 Z M 9.390625 10 " clip-rule="nonzero"/></clipPath><clipPath id="id7"><path d="M 9.390625 7 L 11 7 L 11 9 L 9.390625 9 Z M 9.390625 7 " clip-rule="nonzero"/></clipPath><clipPath id="id8"><path d="M 9.390625 11 L 10 11 L 10 13 L 9.390625 13 Z M 9.390625 11 " clip-rule="nonzero"/></clipPath><clipPath id="id9"><path d="M 9.390625 12 L 11 12 L 11 14 L 9.390625 14 Z M 9.390625 12 " clip-rule="nonzero"/></clipPath><clipPath id="id10"><path d="M 9.390625 13 L 11 13 L 11 14 L 9.390625 14 Z M 9.390625 13 " clip-rule="nonzero"/></clipPath><clipPath id="id11"><path d="M 11 4.382812 L 21 4.382812 L 21 16.722656 L 11 16.722656 Z M 11 4.382812 " clip-rule="nonzero"/></clipPath></defs><path fill="rgb(0%, 0%, 0%)" d="M 15.03125 9.304688 C 14.910156 9.261719 14.78125 9.222656 14.65625 9.1875 C 14.589844 9.167969 14.519531 9.210938 14.5 9.285156 C 14.484375 9.355469 14.523438 9.425781 14.59375 9.445312 C 14.710938 9.476562 14.832031 9.515625 14.953125 9.554688 C 14.964844 9.558594 14.976562 9.5625 14.992188 9.5625 C 15.046875 9.5625 15.09375 9.527344 15.113281 9.472656 C 15.136719 9.402344 15.097656 9.324219 15.03125 9.304688 Z M 15.03125 9.304688 " fill-opacity="1" fill-rule="nonzero"/><path fill="rgb(0%, 0%, 0%)" d="M 15.972656 10.027344 C 16.082031 10.089844 16.1875 10.160156 16.292969 10.230469 C 16.316406 10.246094 16.339844 10.253906 16.363281 10.253906 C 16.40625 10.253906 16.445312 10.230469 16.46875 10.191406 C 16.507812 10.132812 16.492188 10.046875 16.433594 10.007812 C 16.324219 9.933594 16.210938 9.863281 16.101562 9.796875 C 16.039062 9.761719 15.960938 9.78125 15.925781 9.847656 C 15.890625 9.910156 15.914062 9.992188 15.972656 10.027344 Z M 15.972656 10.027344 " fill-opacity="1" fill-rule="nonzero"/><path fill="rgb(0%, 0%, 0%)" d="M 15.644531 9.847656 C 15.660156 9.855469 15.679688 9.859375 15.699219 9.859375 C 15.746094 9.859375 15.792969 9.832031 15.816406 9.785156 C 15.847656 9.71875 15.820312 9.640625 15.753906 9.609375 C 15.640625 9.550781 15.519531 9.492188 15.398438 9.441406 C 15.332031 9.414062 15.257812 9.449219 15.230469 9.515625 C 15.203125 9.585938 15.234375 9.660156 15.300781 9.691406 C 15.417969 9.738281 15.53125 9.792969 15.644531 9.847656 Z M 15.644531 9.847656 " fill-opacity="1" fill-rule="nonzero"/><g clip-path="url(#id2)"><path fill="rgb(0%, 0%, 0%)" d="M 17.808594 15.152344 C 17.816406 15.152344 17.824219 15.148438 17.828125 15.144531 C 18.542969 14.6875 19.140625 14.042969 19.554688 13.289062 C 19.671875 13.074219 19.773438 12.851562 19.859375 12.625 C 19.859375 12.621094 19.863281 12.621094 19.863281 12.621094 C 19.898438 12.523438 19.933594 12.425781 19.964844 12.328125 C 19.972656 12.296875 19.984375 12.261719 19.992188 12.230469 C 19.996094 12.214844 20 12.203125 20.003906 12.1875 C 20.015625 12.144531 20.027344 12.101562 20.039062 12.058594 C 20.042969 12.054688 20.042969 12.050781 20.042969 12.042969 C 20.085938 11.886719 20.117188 11.722656 20.144531 11.558594 C 20.144531 11.558594 20.144531 11.554688 20.144531 11.554688 C 20.160156 11.445312 20.175781 11.335938 20.1875 11.222656 C 20.1875 11.222656 20.1875 11.21875 20.1875 11.21875 C 20.191406 11.167969 20.195312 11.121094 20.199219 11.070312 C 20.199219 11.058594 20.199219 11.046875 20.199219 11.035156 C 20.203125 10.996094 20.203125 10.953125 20.207031 10.914062 C 20.207031 10.898438 20.207031 10.886719 20.207031 10.871094 C 20.207031 10.820312 20.210938 10.769531 20.210938 10.71875 C 20.210938 10.671875 20.210938 10.628906 20.207031 10.585938 C 20.207031 10.574219 20.207031 10.558594 20.207031 10.546875 C 20.207031 10.515625 20.203125 10.484375 20.203125 10.449219 C 20.203125 10.4375 20.203125 10.425781 20.203125 10.414062 C 20.199219 10.378906 20.195312 10.34375 20.195312 10.308594 C 20.195312 10.300781 20.191406 10.289062 20.191406 10.28125 C 20.164062 9.910156 20.09375 9.546875 19.992188 9.199219 C 19.992188 9.195312 19.988281 9.1875 19.988281 9.183594 C 19.976562 9.144531 19.964844 9.109375 19.953125 9.074219 C 19.949219 9.066406 19.949219 9.058594 19.945312 9.050781 C 19.933594 9.015625 19.921875 8.976562 19.910156 8.941406 C 19.902344 8.925781 19.898438 8.914062 19.894531 8.898438 C 19.882812 8.871094 19.875 8.84375 19.863281 8.816406 C 19.855469 8.792969 19.84375 8.765625 19.832031 8.738281 C 19.828125 8.730469 19.824219 8.71875 19.820312 8.710938 C 19.808594 8.679688 19.796875 8.648438 19.785156 8.617188 C 19.785156 8.617188 19.785156 8.617188 19.78125 8.617188 C 19.484375 7.914062 19.03125 7.277344 18.453125 6.761719 C 18.449219 6.757812 18.441406 6.753906 18.433594 6.75 C 18.40625 6.726562 18.378906 6.703125 18.351562 6.679688 C 18.347656 6.671875 18.339844 6.664062 18.332031 6.660156 C 18.328125 6.65625 18.320312 6.652344 18.316406 6.648438 C 17.707031 6.144531 16.980469 5.785156 16.191406 5.617188 C 16.1875 5.617188 16.1875 5.617188 16.1875 5.617188 C 16.152344 5.609375 16.117188 5.601562 16.082031 5.597656 C 16.082031 5.597656 16.078125 5.59375 16.078125 5.59375 C 16.046875 5.589844 16.011719 5.582031 15.980469 5.578125 C 15.96875 5.578125 15.960938 5.574219 15.949219 5.574219 C 15.925781 5.570312 15.902344 5.566406 15.875 5.5625 C 15.859375 5.558594 15.839844 5.558594 15.824219 5.554688 C 15.804688 5.550781 15.785156 5.550781 15.765625 5.546875 C 15.742188 5.546875 15.71875 5.542969 15.695312 5.539062 C 15.679688 5.539062 15.667969 5.539062 15.652344 5.535156 C 15.625 5.535156 15.597656 5.53125 15.570312 5.527344 C 15.554688 5.527344 15.542969 5.527344 15.527344 5.527344 C 15.5 5.523438 15.472656 5.523438 15.445312 5.519531 C 15.425781 5.519531 15.40625 5.519531 15.386719 5.519531 C 15.363281 5.515625 15.339844 5.515625 15.316406 5.515625 C 15.277344 5.515625 15.234375 5.515625 15.191406 5.515625 C 15.15625 5.515625 15.121094 5.515625 15.085938 5.515625 C 15.074219 5.515625 15.0625 5.515625 15.050781 5.515625 C 15.027344 5.515625 15.007812 5.515625 14.984375 5.519531 C 14.96875 5.519531 14.953125 5.519531 14.9375 5.519531 C 14.917969 5.523438 14.902344 5.523438 14.882812 5.523438 C 14.867188 5.523438 14.847656 5.527344 14.832031 5.527344 C 14.816406 5.527344 14.804688 5.527344 14.792969 5.53125 C 14.714844 5.535156 14.636719 5.542969 14.558594 5.554688 C 14.554688 5.554688 14.550781 5.554688 14.546875 5.554688 C 14.519531 5.558594 14.492188 5.5625 14.460938 5.570312 C 14.101562 5.625 13.75 5.71875 13.410156 5.851562 C 13.269531 5.0625 12.605469 4.464844 11.804688 4.464844 C 10.90625 4.464844 10.171875 5.226562 10.171875 6.15625 C 10.171875 6.246094 10.179688 6.332031 10.191406 6.417969 C 10.191406 6.417969 10.191406 6.421875 10.191406 6.421875 C 10.222656 6.609375 10.566406 7.300781 10.921875 7.980469 C 10.910156 8 10.898438 8.019531 10.886719 8.039062 C 10.886719 8.042969 10.882812 8.042969 10.882812 8.042969 C 10.804688 8.183594 10.730469 8.324219 10.664062 8.472656 C 10.660156 8.472656 10.660156 8.476562 10.660156 8.480469 C 10.636719 8.523438 10.617188 8.570312 10.597656 8.617188 C 10.597656 8.621094 10.59375 8.625 10.59375 8.628906 C 10.574219 8.675781 10.554688 8.71875 10.539062 8.765625 C 10.535156 8.773438 10.535156 8.777344 10.53125 8.78125 C 10.515625 8.828125 10.496094 8.875 10.480469 8.921875 C 10.480469 8.925781 10.476562 8.929688 10.476562 8.933594 C 10.457031 8.980469 10.441406 9.027344 10.429688 9.074219 C 10.425781 9.082031 10.425781 9.085938 10.421875 9.089844 C 10.410156 9.136719 10.394531 9.183594 10.378906 9.230469 C 10.378906 9.238281 10.378906 9.242188 10.375 9.25 C 10.363281 9.296875 10.351562 9.34375 10.335938 9.390625 C 10.335938 9.394531 10.335938 9.402344 10.332031 9.40625 C 10.320312 9.453125 10.308594 9.503906 10.300781 9.550781 C 10.296875 9.554688 10.296875 9.5625 10.296875 9.566406 C 10.285156 9.617188 10.277344 9.664062 10.265625 9.710938 C 10.265625 9.71875 10.265625 9.722656 10.261719 9.730469 C 10.253906 9.777344 10.246094 9.824219 10.238281 9.875 C 10.238281 9.878906 10.238281 9.882812 10.234375 9.890625 C 10.226562 9.9375 10.222656 9.988281 10.214844 10.039062 C 10.1875 10.261719 10.171875 10.488281 10.171875 10.71875 C 10.171875 13.585938 12.421875 15.921875 15.191406 15.921875 C 16.148438 15.921875 17.046875 15.640625 17.808594 15.152344 Z M 18.761719 12.394531 L 18.289062 12.136719 L 17.816406 12.394531 L 17.90625 11.847656 L 17.523438 11.460938 L 18.054688 11.378906 L 18.289062 10.882812 L 18.527344 11.378906 L 19.054688 11.460938 L 18.671875 11.847656 Z M 17.4375 11.230469 C 17.351562 11.132812 17.261719 11.042969 17.171875 10.953125 C 17.121094 10.902344 17.117188 10.820312 17.167969 10.765625 C 17.214844 10.710938 17.296875 10.710938 17.347656 10.761719 C 17.441406 10.851562 17.535156 10.949219 17.625 11.046875 C 17.671875 11.097656 17.671875 11.183594 17.621094 11.234375 C 17.59375 11.257812 17.5625 11.269531 17.53125 11.269531 C 17.496094 11.269531 17.464844 11.257812 17.4375 11.230469 Z M 10.445312 6.378906 C 10.433594 6.304688 10.429688 6.230469 10.429688 6.15625 C 10.429688 5.371094 11.046875 4.730469 11.804688 4.730469 C 12.5625 4.730469 13.179688 5.371094 13.179688 6.15625 C 13.179688 6.230469 13.175781 6.304688 13.164062 6.378906 C 13.128906 6.597656 12.355469 8.066406 11.804688 9.070312 C 11.253906 8.070312 10.480469 6.601562 10.445312 6.378906 Z M 13.597656 15.304688 C 13.640625 15.273438 13.679688 15.246094 13.722656 15.226562 C 13.757812 15.210938 13.804688 15.199219 13.851562 15.1875 C 13.941406 15.167969 14.039062 15.144531 14.128906 15.070312 C 14.25 14.96875 14.292969 14.8125 14.328125 14.675781 C 14.367188 14.535156 14.394531 14.445312 14.460938 14.425781 C 14.480469 14.417969 14.507812 14.414062 14.539062 14.414062 C 14.589844 14.410156 14.644531 14.40625 14.703125 14.382812 C 14.835938 14.324219 14.898438 14.195312 14.941406 14.109375 L 15.171875 13.652344 C 15.207031 13.582031 15.25 13.503906 15.261719 13.410156 C 15.289062 13.230469 15.210938 13.042969 15.0625 12.917969 C 14.953125 12.824219 14.804688 12.765625 14.625 12.742188 C 14.601562 12.738281 14.578125 12.734375 14.554688 12.734375 C 14.441406 12.722656 14.332031 12.710938 14.28125 12.648438 C 14.261719 12.625 14.25 12.589844 14.234375 12.546875 C 14.21875 12.511719 14.203125 12.46875 14.179688 12.429688 C 14.117188 12.320312 14.019531 12.246094 13.941406 12.191406 C 13.664062 12.007812 13.34375 11.898438 13.015625 11.878906 C 12.941406 11.875 12.855469 11.878906 12.78125 11.933594 C 12.714844 11.984375 12.683594 12.058594 12.664062 12.105469 C 12.5 12.511719 12.351562 12.9375 12.519531 13.335938 C 12.585938 13.503906 12.699219 13.632812 12.804688 13.757812 C 12.925781 13.898438 13.039062 14.03125 13.074219 14.1875 C 13.09375 14.273438 13.085938 14.375 13.082031 14.460938 C 13.0625 14.699219 13.035156 14.808594 12.984375 15.003906 C 12.980469 15.027344 12.972656 15.054688 12.964844 15.082031 C 11.457031 14.25 10.429688 12.605469 10.429688 10.71875 C 10.429688 10.703125 10.429688 10.6875 10.429688 10.675781 C 10.496094 10.621094 10.628906 10.636719 10.703125 10.710938 C 10.8125 10.820312 10.835938 11.007812 10.835938 11.144531 C 10.835938 11.160156 10.835938 11.175781 10.835938 11.191406 C 10.835938 11.34375 10.832031 11.535156 10.964844 11.671875 C 11.085938 11.796875 11.246094 11.800781 11.390625 11.804688 C 11.472656 11.808594 11.554688 11.8125 11.613281 11.839844 C 11.671875 11.867188 11.726562 11.925781 11.777344 11.988281 C 11.820312 12.035156 11.859375 12.085938 11.910156 12.128906 C 11.992188 12.199219 12.101562 12.238281 12.203125 12.238281 C 12.234375 12.238281 12.269531 12.234375 12.296875 12.222656 C 12.390625 12.199219 12.460938 12.136719 12.492188 12.046875 C 12.550781 11.878906 12.453125 11.742188 12.378906 11.640625 C 12.351562 11.601562 12.324219 11.566406 12.308594 11.53125 C 12.277344 11.464844 12.289062 11.378906 12.332031 11.320312 C 12.367188 11.28125 12.375 11.222656 12.351562 11.175781 C 12.328125 11.128906 12.28125 11.101562 12.226562 11.101562 C 12.078125 11.113281 11.976562 11.085938 11.960938 11.035156 C 11.957031 11.023438 11.953125 11.007812 11.964844 10.984375 C 11.996094 10.925781 12.082031 10.875 12.160156 10.859375 C 12.199219 10.851562 12.238281 10.847656 12.28125 10.839844 C 12.425781 10.824219 12.585938 10.804688 12.710938 10.683594 C 12.804688 10.59375 12.84375 10.480469 12.878906 10.382812 C 12.894531 10.339844 12.910156 10.304688 12.925781 10.269531 C 13 10.105469 13.160156 9.96875 13.398438 9.859375 C 13.488281 9.816406 13.574219 9.785156 13.667969 9.75 C 13.804688 9.695312 13.945312 9.644531 14.078125 9.570312 C 14.160156 9.523438 14.269531 9.453125 14.332031 9.335938 C 14.355469 9.316406 14.371094 9.289062 14.378906 9.253906 C 14.382812 9.234375 14.378906 9.214844 14.375 9.195312 C 14.386719 9.082031 14.359375 8.976562 14.335938 8.898438 C 14.207031 8.5 13.945312 8.160156 13.601562 7.933594 C 13.433594 7.828125 13.324219 7.859375 13.257812 7.902344 C 13.175781 7.957031 13.148438 8.046875 13.132812 8.105469 L 13.125 8.121094 C 13.082031 8.257812 12.992188 8.367188 12.886719 8.40625 C 12.785156 8.441406 12.660156 8.398438 12.621094 8.3125 C 12.558594 8.175781 12.695312 7.984375 12.777344 7.882812 C 12.90625 7.734375 13.046875 7.59375 13.191406 7.464844 C 13.242188 7.421875 13.277344 7.410156 13.289062 7.410156 C 13.296875 7.421875 13.304688 7.449219 13.3125 7.464844 L 13.3125 7.472656 C 13.347656 7.570312 13.402344 7.710938 13.527344 7.792969 C 13.605469 7.84375 13.703125 7.859375 13.792969 7.839844 C 13.871094 7.820312 13.933594 7.773438 13.96875 7.707031 C 14.007812 7.640625 14.019531 7.5625 14.007812 7.464844 C 13.992188 7.332031 13.9375 7.199219 13.855469 7.09375 C 13.820312 7.042969 13.777344 7 13.738281 6.957031 C 13.664062 6.878906 13.601562 6.8125 13.585938 6.734375 C 13.582031 6.710938 13.585938 6.675781 13.585938 6.640625 C 13.589844 6.613281 13.589844 6.585938 13.589844 6.558594 C 13.585938 6.410156 13.535156 6.265625 13.4375 6.140625 C 13.4375 6.132812 13.4375 6.125 13.433594 6.117188 C 13.449219 6.117188 13.46875 6.113281 13.484375 6.105469 C 13.539062 6.085938 13.59375 6.066406 13.648438 6.046875 C 13.648438 6.085938 13.644531 6.128906 13.644531 6.167969 C 13.648438 6.226562 13.648438 6.347656 13.726562 6.433594 C 13.796875 6.511719 13.886719 6.523438 13.953125 6.535156 C 13.96875 6.535156 13.984375 6.539062 13.996094 6.542969 C 14.179688 6.582031 14.289062 6.804688 14.324219 6.984375 C 14.34375 7.074219 14.351562 7.167969 14.363281 7.269531 C 14.378906 7.421875 14.394531 7.578125 14.445312 7.730469 C 14.503906 7.898438 14.589844 8.011719 14.703125 8.070312 C 14.753906 8.097656 14.808594 8.109375 14.867188 8.109375 C 14.90625 8.109375 14.949219 8.105469 14.988281 8.089844 C 15.066406 8.058594 15.128906 8.003906 15.164062 7.925781 C 15.191406 7.867188 15.191406 7.804688 15.195312 7.753906 C 15.195312 7.742188 15.195312 7.726562 15.199219 7.710938 C 15.214844 7.550781 15.367188 7.4375 15.429688 7.398438 C 15.503906 7.351562 15.585938 7.3125 15.667969 7.273438 C 15.738281 7.238281 15.8125 7.207031 15.878906 7.167969 C 15.949219 7.128906 16.035156 7.070312 16.082031 6.976562 C 16.132812 6.871094 16.125 6.761719 16.121094 6.671875 L 16.117188 6.648438 C 16.101562 6.394531 16.152344 6.132812 16.261719 5.90625 C 16.9375 6.066406 17.5625 6.378906 18.09375 6.808594 C 18.011719 6.972656 17.859375 7.101562 17.699219 7.234375 C 17.578125 7.339844 17.449219 7.445312 17.347656 7.574219 C 17.316406 7.609375 17.292969 7.648438 17.277344 7.691406 C 17.195312 7.914062 17.347656 8.0625 17.445312 8.160156 C 17.496094 8.207031 17.554688 8.261719 17.546875 8.292969 C 17.542969 8.316406 17.496094 8.347656 17.453125 8.378906 C 17.414062 8.40625 17.367188 8.433594 17.328125 8.476562 C 17.28125 8.523438 17.25 8.582031 17.21875 8.632812 C 17.191406 8.683594 17.164062 8.730469 17.132812 8.746094 C 17.121094 8.753906 17.105469 8.757812 17.085938 8.761719 C 17.058594 8.769531 17.03125 8.777344 17 8.792969 C 16.894531 8.84375 16.820312 8.957031 16.816406 9.09375 C 16.8125 9.132812 16.816406 9.171875 16.824219 9.207031 C 16.722656 9.25 16.628906 9.324219 16.566406 9.417969 C 16.472656 9.558594 16.453125 9.71875 16.503906 9.875 C 16.578125 10.097656 16.796875 10.230469 17.007812 10.1875 C 17.167969 10.152344 17.273438 10.035156 17.367188 9.933594 C 17.398438 9.894531 17.429688 9.859375 17.460938 9.828125 C 17.554688 9.742188 17.679688 9.691406 17.804688 9.683594 C 17.867188 9.679688 17.9375 9.710938 17.960938 9.742188 C 17.96875 9.75 17.96875 9.753906 17.964844 9.757812 C 17.964844 9.765625 17.957031 9.78125 17.949219 9.792969 C 17.925781 9.84375 17.886719 9.925781 17.921875 10.027344 C 17.945312 10.09375 17.996094 10.152344 18.066406 10.183594 C 18.191406 10.238281 18.304688 10.199219 18.394531 10.167969 C 18.449219 10.148438 18.503906 10.128906 18.535156 10.140625 C 18.570312 10.148438 18.609375 10.195312 18.648438 10.242188 C 18.722656 10.328125 18.824219 10.441406 18.984375 10.414062 C 18.992188 10.410156 19.003906 10.410156 19.011719 10.40625 C 19.03125 10.398438 19.046875 10.410156 19.046875 10.414062 C 19.058594 10.425781 19.054688 10.433594 19.054688 10.4375 C 19.039062 10.496094 19.015625 10.511719 19 10.523438 C 18.910156 10.570312 18.6875 10.496094 18.46875 10.425781 C 18.1875 10.332031 17.871094 10.222656 17.546875 10.253906 C 17.320312 10.277344 17.121094 10.324219 16.945312 10.394531 C 16.882812 10.34375 16.816406 10.289062 16.753906 10.242188 C 16.695312 10.195312 16.617188 10.207031 16.574219 10.265625 C 16.53125 10.328125 16.542969 10.410156 16.597656 10.453125 C 16.628906 10.476562 16.660156 10.5 16.691406 10.527344 C 16.589844 10.589844 16.496094 10.667969 16.414062 10.753906 C 16.316406 10.863281 16.230469 10.996094 16.160156 11.148438 C 16.113281 11.246094 16.089844 11.355469 16.085938 11.472656 C 16.082031 11.660156 16.09375 11.910156 16.199219 12.132812 C 16.382812 12.519531 16.871094 12.722656 17.28125 12.582031 C 17.316406 12.570312 17.339844 12.585938 17.351562 12.59375 C 17.363281 12.601562 17.382812 12.621094 17.378906 12.65625 C 17.378906 12.675781 17.378906 12.695312 17.378906 12.714844 C 17.375 12.753906 17.375 12.792969 17.375 12.832031 C 17.375 12.957031 17.402344 13.070312 17.433594 13.179688 C 17.445312 13.234375 17.460938 13.289062 17.46875 13.339844 C 17.507812 13.539062 17.488281 13.746094 17.46875 13.964844 C 17.457031 14.066406 17.449219 14.171875 17.445312 14.277344 C 17.4375 14.480469 17.457031 14.753906 17.578125 14.988281 C 16.875 15.410156 16.0625 15.652344 15.191406 15.652344 C 14.609375 15.652344 14.050781 15.546875 13.539062 15.347656 C 13.558594 15.332031 13.578125 15.316406 13.597656 15.304688 Z M 13.597656 15.304688 " fill-opacity="1" fill-rule="nonzero"/></g><path fill="rgb(0%, 0%, 0%)" d="M 12.675781 5.960938 C 12.675781 5.464844 12.285156 5.058594 11.804688 5.058594 C 11.324219 5.058594 10.933594 5.464844 10.933594 5.960938 C 10.933594 6.457031 11.324219 6.863281 11.804688 6.863281 C 12.285156 6.863281 12.675781 6.457031 12.675781 5.960938 Z M 12.675781 5.960938 " fill-opacity="1" fill-rule="nonzero"/><g clip-path="url(#id3)"><path fill="rgb(0%, 0%, 0%)" d="M 9.574219 9.953125 C 9.578125 9.953125 9.585938 9.953125 9.59375 9.953125 C 9.65625 9.953125 9.710938 9.90625 9.71875 9.839844 C 9.738281 9.710938 9.761719 9.582031 9.789062 9.457031 C 9.804688 9.386719 9.761719 9.3125 9.691406 9.296875 C 9.621094 9.28125 9.554688 9.328125 9.539062 9.398438 C 9.511719 9.53125 9.484375 9.664062 9.464844 9.800781 C 9.453125 9.871094 9.503906 9.941406 9.574219 9.953125 Z M 9.574219 9.953125 " fill-opacity="1" fill-rule="nonzero"/></g><g clip-path="url(#id4)"><path fill="rgb(0%, 0%, 0%)" d="M 9.523438 10.75 C 9.527344 10.75 9.527344 10.75 9.527344 10.75 C 9.597656 10.75 9.65625 10.691406 9.65625 10.617188 C 9.65625 10.488281 9.664062 10.355469 9.675781 10.226562 C 9.679688 10.152344 9.628906 10.089844 9.558594 10.082031 C 9.488281 10.078125 9.425781 10.132812 9.417969 10.207031 C 9.40625 10.339844 9.402344 10.476562 9.398438 10.613281 C 9.398438 10.6875 9.453125 10.746094 9.523438 10.75 Z M 9.523438 10.75 " fill-opacity="1" fill-rule="nonzero"/></g><g clip-path="url(#id5)"><path fill="rgb(0%, 0%, 0%)" d="M 9.722656 9.167969 C 9.738281 9.171875 9.75 9.175781 9.761719 9.175781 C 9.816406 9.175781 9.867188 9.136719 9.882812 9.078125 C 9.917969 8.953125 9.960938 8.832031 10.003906 8.707031 C 10.027344 8.640625 9.996094 8.5625 9.929688 8.539062 C 9.863281 8.511719 9.789062 8.546875 9.761719 8.617188 C 9.71875 8.742188 9.675781 8.871094 9.636719 9.003906 C 9.617188 9.074219 9.65625 9.148438 9.722656 9.167969 Z M 9.722656 9.167969 " fill-opacity="1" fill-rule="nonzero"/></g><g clip-path="url(#id6)"><path fill="rgb(0%, 0%, 0%)" d="M 9.582031 11.542969 C 9.652344 11.535156 9.703125 11.46875 9.695312 11.398438 C 9.679688 11.269531 9.667969 11.136719 9.664062 11.007812 C 9.660156 10.933594 9.597656 10.878906 9.527344 10.882812 C 9.457031 10.886719 9.402344 10.949219 9.40625 11.019531 C 9.414062 11.15625 9.421875 11.292969 9.4375 11.429688 C 9.445312 11.496094 9.5 11.546875 9.566406 11.546875 C 9.570312 11.546875 9.574219 11.546875 9.582031 11.542969 Z M 9.582031 11.542969 " fill-opacity="1" fill-rule="nonzero"/></g><g clip-path="url(#id7)"><path fill="rgb(0%, 0%, 0%)" d="M 9.976562 8.414062 C 9.996094 8.421875 10.011719 8.425781 10.03125 8.425781 C 10.078125 8.425781 10.125 8.398438 10.148438 8.347656 C 10.199219 8.230469 10.253906 8.113281 10.3125 8 C 10.347656 7.933594 10.324219 7.851562 10.261719 7.816406 C 10.199219 7.785156 10.121094 7.808594 10.089844 7.871094 C 10.027344 7.992188 9.96875 8.113281 9.914062 8.238281 C 9.882812 8.304688 9.914062 8.382812 9.976562 8.414062 Z M 9.976562 8.414062 " fill-opacity="1" fill-rule="nonzero"/></g><g clip-path="url(#id8)"><path fill="rgb(0%, 0%, 0%)" d="M 9.738281 12.324219 C 9.808594 12.304688 9.851562 12.234375 9.832031 12.164062 C 9.800781 12.039062 9.773438 11.910156 9.75 11.78125 C 9.738281 11.710938 9.671875 11.664062 9.601562 11.675781 C 9.53125 11.6875 9.484375 11.757812 9.496094 11.832031 C 9.523438 11.964844 9.550781 12.097656 9.582031 12.230469 C 9.597656 12.289062 9.652344 12.328125 9.707031 12.328125 C 9.71875 12.328125 9.730469 12.328125 9.738281 12.324219 Z M 9.738281 12.324219 " fill-opacity="1" fill-rule="nonzero"/></g><g clip-path="url(#id9)"><path fill="rgb(0%, 0%, 0%)" d="M 10.070312 12.902344 C 10.023438 12.78125 9.980469 12.660156 9.9375 12.535156 C 9.917969 12.46875 9.84375 12.429688 9.777344 12.453125 C 9.710938 12.476562 9.671875 12.550781 9.695312 12.621094 C 9.738281 12.75 9.785156 12.878906 9.832031 13.003906 C 9.851562 13.054688 9.902344 13.085938 9.953125 13.085938 C 9.96875 13.085938 9.984375 13.082031 10 13.074219 C 10.066406 13.046875 10.097656 12.96875 10.070312 12.902344 Z M 10.070312 12.902344 " fill-opacity="1" fill-rule="nonzero"/></g><path fill="rgb(0%, 0%, 0%)" d="M 10.605469 13.929688 C 10.566406 13.871094 10.484375 13.855469 10.425781 13.894531 C 10.367188 13.9375 10.351562 14.019531 10.390625 14.082031 C 10.464844 14.191406 10.542969 14.304688 10.625 14.410156 C 10.648438 14.445312 10.6875 14.460938 10.726562 14.460938 C 10.753906 14.460938 10.78125 14.453125 10.804688 14.433594 C 10.859375 14.386719 10.871094 14.304688 10.824219 14.246094 C 10.75 14.144531 10.675781 14.039062 10.605469 13.929688 Z M 10.605469 13.929688 " fill-opacity="1" fill-rule="nonzero"/><g clip-path="url(#id10)"><path fill="rgb(0%, 0%, 0%)" d="M 10.402344 13.601562 C 10.339844 13.488281 10.28125 13.375 10.226562 13.257812 C 10.195312 13.191406 10.117188 13.164062 10.054688 13.195312 C 9.988281 13.230469 9.964844 13.308594 9.996094 13.375 C 10.054688 13.496094 10.117188 13.617188 10.183594 13.734375 C 10.207031 13.777344 10.25 13.800781 10.292969 13.800781 C 10.316406 13.800781 10.335938 13.796875 10.359375 13.785156 C 10.417969 13.746094 10.441406 13.664062 10.402344 13.601562 Z M 10.402344 13.601562 " fill-opacity="1" fill-rule="nonzero"/></g><g clip-path="url(#id11)"><path fill="rgb(0%, 0%, 0%)" d="M 19.328125 6.511719 C 18.230469 5.351562 16.757812 4.710938 15.191406 4.710938 C 15.035156 4.710938 14.875 4.71875 14.71875 4.730469 L 14.796875 4.519531 C 14.820312 4.445312 14.746094 4.382812 14.683594 4.421875 L 13.886719 4.9375 C 13.828125 4.976562 13.84375 5.070312 13.914062 5.085938 L 14.828125 5.292969 C 14.898438 5.308594 14.949219 5.222656 14.902344 5.164062 L 14.765625 4.996094 C 14.90625 4.984375 15.050781 4.976562 15.191406 4.976562 C 16.667969 4.976562 18.058594 5.574219 19.105469 6.660156 C 20.152344 7.742188 20.726562 9.183594 20.726562 10.71875 C 20.726562 12.25 20.152344 13.691406 19.105469 14.773438 C 18.058594 15.859375 16.667969 16.457031 15.191406 16.457031 C 13.988281 16.457031 12.84375 16.0625 11.882812 15.320312 C 11.824219 15.273438 11.738281 15.289062 11.695312 15.355469 C 11.660156 15.417969 11.679688 15.496094 11.734375 15.535156 C 12.738281 16.3125 13.933594 16.722656 15.191406 16.722656 C 16.738281 16.722656 18.191406 16.097656 19.285156 14.964844 C 20.371094 13.839844 20.972656 12.351562 20.984375 10.765625 C 20.996094 9.179688 20.398438 7.644531 19.328125 6.511719 Z M 19.328125 6.511719 " fill-opacity="1" fill-rule="nonzero"/></g><g fill="rgb(0%, 0%, 0%)" fill-opacity="1"><g transform="translate(9.554753, 20.763082)"><g><path d="M 0.09375 -1.125 C 0.09375 -1.34375 0.132812 -1.535156 0.21875 -1.703125 C 0.3125 -1.878906 0.441406 -2.015625 0.609375 -2.109375 C 0.773438 -2.203125 0.972656 -2.25 1.203125 -2.25 C 1.390625 -2.25 1.5625 -2.210938 1.71875 -2.140625 C 1.875 -2.066406 2 -1.960938 2.09375 -1.828125 C 2.1875 -1.703125 2.25 -1.550781 2.28125 -1.375 L 1.546875 -1.375 C 1.515625 -1.445312 1.46875 -1.503906 1.40625 -1.546875 C 1.34375 -1.585938 1.269531 -1.609375 1.1875 -1.609375 C 1.070312 -1.609375 0.976562 -1.5625 0.90625 -1.46875 C 0.84375 -1.382812 0.8125 -1.269531 0.8125 -1.125 C 0.8125 -0.96875 0.84375 -0.84375 0.90625 -0.75 C 0.976562 -0.664062 1.070312 -0.625 1.1875 -0.625 C 1.269531 -0.625 1.34375 -0.644531 1.40625 -0.6875 C 1.46875 -0.726562 1.515625 -0.785156 1.546875 -0.859375 L 2.28125 -0.859375 C 2.25 -0.679688 2.1875 -0.523438 2.09375 -0.390625 C 2 -0.265625 1.875 -0.164062 1.71875 -0.09375 C 1.5625 -0.0195312 1.390625 0.015625 1.203125 0.015625 C 0.972656 0.015625 0.773438 -0.03125 0.609375 -0.125 C 0.441406 -0.21875 0.3125 -0.347656 0.21875 -0.515625 C 0.132812 -0.691406 0.09375 -0.894531 0.09375 -1.125 Z M 0.09375 -1.125 "/></g></g></g><g fill="rgb(0%, 0%, 0%)" fill-opacity="1"><g transform="translate(11.92601, 20.763082)"><g><path d="M 1.28125 0 L 0.859375 -0.796875 L 0.859375 0 L 0.15625 0 L 0.15625 -2.234375 L 1.203125 -2.234375 C 1.378906 -2.234375 1.53125 -2.203125 1.65625 -2.140625 C 1.789062 -2.078125 1.890625 -1.988281 1.953125 -1.875 C 2.015625 -1.757812 2.046875 -1.632812 2.046875 -1.5 C 2.046875 -1.351562 2.003906 -1.222656 1.921875 -1.109375 C 1.835938 -0.992188 1.71875 -0.910156 1.5625 -0.859375 L 2.046875 0 Z M 0.859375 -1.265625 L 1.140625 -1.265625 C 1.203125 -1.265625 1.25 -1.28125 1.28125 -1.3125 C 1.320312 -1.34375 1.34375 -1.390625 1.34375 -1.453125 C 1.34375 -1.515625 1.320312 -1.5625 1.28125 -1.59375 C 1.25 -1.625 1.203125 -1.640625 1.140625 -1.640625 L 0.859375 -1.640625 Z M 0.859375 -1.265625 "/></g></g></g><g fill="rgb(0%, 0%, 0%)" fill-opacity="1"><g transform="translate(14.035894, 20.763082)"><g><path d="M 0.859375 -1.671875 L 0.859375 -1.40625 L 1.546875 -1.40625 L 1.546875 -0.875 L 0.859375 -0.875 L 0.859375 -0.5625 L 1.640625 -0.5625 L 1.640625 0 L 0.15625 0 L 0.15625 -2.234375 L 1.640625 -2.234375 L 1.640625 -1.671875 Z M 0.859375 -1.671875 "/></g></g></g><g fill="rgb(0%, 0%, 0%)" fill-opacity="1"><g transform="translate(15.786783, 20.763082)"><g><path d="M 1.09375 -2.234375 C 1.320312 -2.234375 1.523438 -2.1875 1.703125 -2.09375 C 1.878906 -2 2.015625 -1.867188 2.109375 -1.703125 C 2.203125 -1.535156 2.25 -1.34375 2.25 -1.125 C 2.25 -0.914062 2.203125 -0.722656 2.109375 -0.546875 C 2.015625 -0.378906 1.878906 -0.242188 1.703125 -0.140625 C 1.523438 -0.046875 1.320312 0 1.09375 0 L 0.15625 0 L 0.15625 -2.234375 Z M 1.03125 -0.625 C 1.1875 -0.625 1.3125 -0.664062 1.40625 -0.75 C 1.5 -0.84375 1.546875 -0.96875 1.546875 -1.125 C 1.546875 -1.28125 1.5 -1.398438 1.40625 -1.484375 C 1.3125 -1.578125 1.1875 -1.625 1.03125 -1.625 L 0.859375 -1.625 L 0.859375 -0.625 Z M 1.03125 -0.625 "/></g></g></g><g fill="rgb(0%, 0%, 0%)" fill-opacity="1"><g transform="translate(18.126549, 20.763082)"><g><path d="M 0.859375 -2.234375 L 0.859375 0 L 0.15625 0 L 0.15625 -2.234375 Z M 0.859375 -2.234375 "/></g></g></g><g fill="rgb(0%, 0%, 0%)" fill-opacity="1"><g transform="translate(19.140553, 20.763082)"><g><path d="M 1.90625 -2.234375 L 1.90625 -1.671875 L 1.3125 -1.671875 L 1.3125 0 L 0.625 0 L 0.625 -1.671875 L 0.03125 -1.671875 L 0.03125 -2.234375 Z M 1.90625 -2.234375 "/></g></g></g><g fill="rgb(0%, 0%, 0%)" fill-opacity="1"><g transform="translate(6.958083, 23.864356)"><g><path d="M 0.859375 -0.53125 L 1.53125 -0.53125 L 1.53125 0 L 0.15625 0 L 0.15625 -2.234375 L 0.859375 -2.234375 Z M 0.859375 -0.53125 "/></g></g></g><g fill="rgb(0%, 0%, 0%)" fill-opacity="1"><g transform="translate(8.551518, 23.864356)"><g><path d="M 1.25 0.015625 C 1.039062 0.015625 0.847656 -0.03125 0.671875 -0.125 C 0.492188 -0.226562 0.351562 -0.363281 0.25 -0.53125 C 0.144531 -0.707031 0.09375 -0.90625 0.09375 -1.125 C 0.09375 -1.34375 0.144531 -1.539062 0.25 -1.71875 C 0.351562 -1.894531 0.492188 -2.03125 0.671875 -2.125 C 0.847656 -2.21875 1.039062 -2.265625 1.25 -2.265625 C 1.457031 -2.265625 1.648438 -2.21875 1.828125 -2.125 C 2.003906 -2.03125 2.140625 -1.894531 2.234375 -1.71875 C 2.335938 -1.539062 2.390625 -1.34375 2.390625 -1.125 C 2.390625 -0.90625 2.335938 -0.707031 2.234375 -0.53125 C 2.140625 -0.363281 2.003906 -0.226562 1.828125 -0.125 C 1.648438 -0.03125 1.457031 0.015625 1.25 0.015625 Z M 1.25 -0.625 C 1.382812 -0.625 1.488281 -0.671875 1.5625 -0.765625 C 1.644531 -0.859375 1.6875 -0.976562 1.6875 -1.125 C 1.6875 -1.28125 1.644531 -1.398438 1.5625 -1.484375 C 1.488281 -1.578125 1.382812 -1.625 1.25 -1.625 C 1.101562 -1.625 0.992188 -1.578125 0.921875 -1.484375 C 0.847656 -1.398438 0.8125 -1.28125 0.8125 -1.125 C 0.8125 -0.976562 0.847656 -0.859375 0.921875 -0.765625 C 0.992188 -0.671875 1.101562 -0.625 1.25 -0.625 Z M 1.25 -0.625 "/></g></g></g><g fill="rgb(0%, 0%, 0%)" fill-opacity="1"><g transform="translate(11.032992, 23.864356)"><g><path d="M 1.53125 -1.46875 C 1.5 -1.507812 1.457031 -1.539062 1.40625 -1.5625 C 1.351562 -1.59375 1.296875 -1.609375 1.234375 -1.609375 C 1.097656 -1.609375 0.992188 -1.5625 0.921875 -1.46875 C 0.847656 -1.382812 0.8125 -1.269531 0.8125 -1.125 C 0.8125 -0.945312 0.847656 -0.8125 0.921875 -0.71875 C 1.003906 -0.632812 1.132812 -0.59375 1.3125 -0.59375 C 1.46875 -0.59375 1.597656 -0.660156 1.703125 -0.796875 L 1.140625 -0.796875 L 1.140625 -1.296875 L 2.28125 -1.296875 L 2.28125 -0.59375 C 2.1875 -0.425781 2.050781 -0.28125 1.875 -0.15625 C 1.707031 -0.0390625 1.492188 0.015625 1.234375 0.015625 C 1.003906 0.015625 0.800781 -0.03125 0.625 -0.125 C 0.457031 -0.21875 0.328125 -0.347656 0.234375 -0.515625 C 0.140625 -0.691406 0.09375 -0.894531 0.09375 -1.125 C 0.09375 -1.34375 0.140625 -1.535156 0.234375 -1.703125 C 0.328125 -1.878906 0.457031 -2.015625 0.625 -2.109375 C 0.789062 -2.203125 0.988281 -2.25 1.21875 -2.25 C 1.507812 -2.25 1.75 -2.175781 1.9375 -2.03125 C 2.125 -1.894531 2.234375 -1.707031 2.265625 -1.46875 Z M 1.53125 -1.46875 "/></g></g></g><g fill="rgb(0%, 0%, 0%)" fill-opacity="1"><g transform="translate(13.401101, 23.864356)"><g><path d="M 0.859375 -2.234375 L 0.859375 0 L 0.15625 0 L 0.15625 -2.234375 Z M 0.859375 -2.234375 "/></g></g></g><g fill="rgb(0%, 0%, 0%)" fill-opacity="1"><g transform="translate(14.415105, 23.864356)"><g><path d="M 1.03125 0.015625 C 0.757812 0.015625 0.535156 -0.046875 0.359375 -0.171875 C 0.191406 -0.296875 0.101562 -0.476562 0.09375 -0.71875 L 0.828125 -0.71875 C 0.835938 -0.59375 0.894531 -0.53125 1 -0.53125 C 1.039062 -0.53125 1.070312 -0.535156 1.09375 -0.546875 C 1.125 -0.566406 1.140625 -0.597656 1.140625 -0.640625 C 1.140625 -0.691406 1.109375 -0.734375 1.046875 -0.765625 C 0.992188 -0.796875 0.90625 -0.832031 0.78125 -0.875 C 0.644531 -0.925781 0.53125 -0.972656 0.4375 -1.015625 C 0.34375 -1.066406 0.257812 -1.140625 0.1875 -1.234375 C 0.125 -1.328125 0.09375 -1.445312 0.09375 -1.59375 C 0.09375 -1.738281 0.128906 -1.859375 0.203125 -1.953125 C 0.273438 -2.054688 0.375 -2.132812 0.5 -2.1875 C 0.632812 -2.238281 0.785156 -2.265625 0.953125 -2.265625 C 1.222656 -2.265625 1.4375 -2.203125 1.59375 -2.078125 C 1.757812 -1.953125 1.847656 -1.773438 1.859375 -1.546875 L 1.09375 -1.546875 C 1.09375 -1.609375 1.078125 -1.648438 1.046875 -1.671875 C 1.023438 -1.703125 0.992188 -1.71875 0.953125 -1.71875 C 0.921875 -1.71875 0.894531 -1.707031 0.875 -1.6875 C 0.851562 -1.675781 0.84375 -1.648438 0.84375 -1.609375 C 0.84375 -1.554688 0.867188 -1.515625 0.921875 -1.484375 C 0.984375 -1.453125 1.078125 -1.414062 1.203125 -1.375 C 1.335938 -1.320312 1.453125 -1.269531 1.546875 -1.21875 C 1.640625 -1.164062 1.71875 -1.097656 1.78125 -1.015625 C 1.851562 -0.929688 1.890625 -0.820312 1.890625 -0.6875 C 1.890625 -0.550781 1.851562 -0.425781 1.78125 -0.3125 C 1.71875 -0.207031 1.617188 -0.125 1.484375 -0.0625 C 1.359375 -0.0078125 1.207031 0.015625 1.03125 0.015625 Z M 1.03125 0.015625 "/></g></g></g><g fill="rgb(0%, 0%, 0%)" fill-opacity="1"><g transform="translate(16.383279, 23.864356)"><g><path d="M 1.90625 -2.234375 L 1.90625 -1.671875 L 1.3125 -1.671875 L 1.3125 0 L 0.625 0 L 0.625 -1.671875 L 0.03125 -1.671875 L 0.03125 -2.234375 Z M 1.90625 -2.234375 "/></g></g></g><g fill="rgb(0%, 0%, 0%)" fill-opacity="1"><g transform="translate(18.323113, 23.864356)"><g><path d="M 0.859375 -2.234375 L 0.859375 0 L 0.15625 0 L 0.15625 -2.234375 Z M 0.859375 -2.234375 "/></g></g></g><g fill="rgb(0%, 0%, 0%)" fill-opacity="1"><g transform="translate(19.337117, 23.864356)"><g><path d="M 0.09375 -1.125 C 0.09375 -1.34375 0.132812 -1.535156 0.21875 -1.703125 C 0.3125 -1.878906 0.441406 -2.015625 0.609375 -2.109375 C 0.773438 -2.203125 0.972656 -2.25 1.203125 -2.25 C 1.390625 -2.25 1.5625 -2.210938 1.71875 -2.140625 C 1.875 -2.066406 2 -1.960938 2.09375 -1.828125 C 2.1875 -1.703125 2.25 -1.550781 2.28125 -1.375 L 1.546875 -1.375 C 1.515625 -1.445312 1.46875 -1.503906 1.40625 -1.546875 C 1.34375 -1.585938 1.269531 -1.609375 1.1875 -1.609375 C 1.070312 -1.609375 0.976562 -1.5625 0.90625 -1.46875 C 0.84375 -1.382812 0.8125 -1.269531 0.8125 -1.125 C 0.8125 -0.96875 0.84375 -0.84375 0.90625 -0.75 C 0.976562 -0.664062 1.070312 -0.625 1.1875 -0.625 C 1.269531 -0.625 1.34375 -0.644531 1.40625 -0.6875 C 1.46875 -0.726562 1.515625 -0.785156 1.546875 -0.859375 L 2.28125 -0.859375 C 2.25 -0.679688 2.1875 -0.523438 2.09375 -0.390625 C 2 -0.265625 1.875 -0.164062 1.71875 -0.09375 C 1.5625 -0.0195312 1.390625 0.015625 1.203125 0.015625 C 0.972656 0.015625 0.773438 -0.03125 0.609375 -0.125 C 0.441406 -0.21875 0.3125 -0.347656 0.21875 -0.515625 C 0.132812 -0.691406 0.09375 -0.894531 0.09375 -1.125 Z M 0.09375 -1.125 "/></g></g></g><g fill="rgb(0%, 0%, 0%)" fill-opacity="1"><g transform="translate(21.708373, 23.864356)"><g><path d="M 1.03125 0.015625 C 0.757812 0.015625 0.535156 -0.046875 0.359375 -0.171875 C 0.191406 -0.296875 0.101562 -0.476562 0.09375 -0.71875 L 0.828125 -0.71875 C 0.835938 -0.59375 0.894531 -0.53125 1 -0.53125 C 1.039062 -0.53125 1.070312 -0.535156 1.09375 -0.546875 C 1.125 -0.566406 1.140625 -0.597656 1.140625 -0.640625 C 1.140625 -0.691406 1.109375 -0.734375 1.046875 -0.765625 C 0.992188 -0.796875 0.90625 -0.832031 0.78125 -0.875 C 0.644531 -0.925781 0.53125 -0.972656 0.4375 -1.015625 C 0.34375 -1.066406 0.257812 -1.140625 0.1875 -1.234375 C 0.125 -1.328125 0.09375 -1.445312 0.09375 -1.59375 C 0.09375 -1.738281 0.128906 -1.859375 0.203125 -1.953125 C 0.273438 -2.054688 0.375 -2.132812 0.5 -2.1875 C 0.632812 -2.238281 0.785156 -2.265625 0.953125 -2.265625 C 1.222656 -2.265625 1.4375 -2.203125 1.59375 -2.078125 C 1.757812 -1.953125 1.847656 -1.773438 1.859375 -1.546875 L 1.09375 -1.546875 C 1.09375 -1.609375 1.078125 -1.648438 1.046875 -1.671875 C 1.023438 -1.703125 0.992188 -1.71875 0.953125 -1.71875 C 0.921875 -1.71875 0.894531 -1.707031 0.875 -1.6875 C 0.851562 -1.675781 0.84375 -1.648438 0.84375 -1.609375 C 0.84375 -1.554688 0.867188 -1.515625 0.921875 -1.484375 C 0.984375 -1.453125 1.078125 -1.414062 1.203125 -1.375 C 1.335938 -1.320312 1.453125 -1.269531 1.546875 -1.21875 C 1.640625 -1.164062 1.71875 -1.097656 1.78125 -1.015625 C 1.851562 -0.929688 1.890625 -0.820312 1.890625 -0.6875 C 1.890625 -0.550781 1.851562 -0.425781 1.78125 -0.3125 C 1.71875 -0.207031 1.617188 -0.125 1.484375 -0.0625 C 1.359375 -0.0078125 1.207031 0.015625 1.03125 0.015625 Z M 1.03125 0.015625 "/></g></g></g></svg>