<svg xmlns="http://www.w3.org/2000/svg" xmlns:xlink="http://www.w3.org/1999/xlink" width="500" zoomAndPan="magnify" viewBox="0 0 375 374.999991" height="500" preserveAspectRatio="xMidYMid meet" version="1.0"><defs><g><g id="id1"/></g><clipPath id="id2"><path d="M 80.015625 106 L 86 106 L 86 119 L 80.015625 119 Z M 80.015625 106 " clip-rule="nonzero"/></clipPath><clipPath id="id3"><path d="M 80.015625 121 L 86 121 L 86 134 L 80.015625 134 Z M 80.015625 121 " clip-rule="nonzero"/></clipPath><clipPath id="id4"><path d="M 122 5.03125 L 295 5.03125 L 295 225.53125 L 122 225.53125 Z M 122 5.03125 " clip-rule="nonzero"/></clipPath></defs><path fill="rgb(0%, 0%, 0%)" d="M 184.566406 92.960938 C 182.28125 92.207031 179.945312 91.515625 177.613281 90.910156 C 176.339844 90.582031 175.039062 91.347656 174.710938 92.617188 C 174.378906 93.890625 175.144531 95.1875 176.417969 95.519531 C 178.644531 96.09375 180.882812 96.753906 183.066406 97.476562 C 183.316406 97.558594 183.566406 97.601562 183.816406 97.601562 C 184.816406 97.601562 185.746094 96.96875 186.078125 95.96875 C 186.492188 94.722656 185.816406 93.375 184.566406 92.960938 Z M 184.566406 92.960938 " fill-opacity="1" fill-rule="nonzero"/><path fill="rgb(0%, 0%, 0%)" d="M 202.035156 105.929688 C 204.023438 107.058594 206.015625 108.277344 207.953125 109.546875 C 208.355469 109.8125 208.808594 109.9375 209.257812 109.9375 C 210.03125 109.9375 210.792969 109.558594 211.25 108.863281 C 211.972656 107.765625 211.664062 106.289062 210.566406 105.570312 C 208.546875 104.246094 206.46875 102.972656 204.390625 101.792969 C 203.246094 101.140625 201.792969 101.542969 201.144531 102.683594 C 200.492188 103.824219 200.890625 105.277344 202.035156 105.929688 Z M 202.035156 105.929688 " fill-opacity="1" fill-rule="nonzero"/><path fill="rgb(0%, 0%, 0%)" d="M 195.902344 102.699219 C 196.238281 102.859375 196.589844 102.9375 196.941406 102.9375 C 197.824219 102.9375 198.671875 102.445312 199.085938 101.597656 C 199.660156 100.417969 199.167969 98.992188 197.984375 98.417969 C 195.820312 97.367188 193.589844 96.375 191.367188 95.46875 C 190.148438 94.972656 188.757812 95.558594 188.261719 96.773438 C 187.765625 97.992188 188.351562 99.378906 189.570312 99.875 C 191.699219 100.742188 193.828125 101.691406 195.902344 102.699219 Z M 195.902344 102.699219 " fill-opacity="1" fill-rule="nonzero"/><path fill="rgb(0%, 0%, 0%)" d="M 236.089844 197.527344 C 236.207031 197.476562 236.324219 197.421875 236.4375 197.351562 C 249.683594 189.164062 260.757812 177.695312 268.460938 164.1875 C 270.644531 160.363281 272.53125 156.390625 274.136719 152.308594 C 274.144531 152.296875 274.148438 152.28125 274.152344 152.269531 C 274.832031 150.535156 275.464844 148.785156 276.039062 147.015625 C 276.226562 146.441406 276.410156 145.867188 276.585938 145.289062 C 276.664062 145.035156 276.742188 144.773438 276.816406 144.515625 C 277.039062 143.761719 277.253906 143.003906 277.457031 142.242188 C 277.484375 142.144531 277.511719 142.046875 277.539062 141.949219 C 278.289062 139.101562 278.90625 136.203125 279.386719 133.261719 C 279.390625 133.246094 279.394531 133.230469 279.394531 133.214844 C 279.714844 131.261719 279.972656 129.289062 280.167969 127.300781 C 280.171875 127.261719 280.171875 127.222656 280.175781 127.183594 C 280.257812 126.316406 280.328125 125.445312 280.386719 124.570312 C 280.402344 124.351562 280.417969 124.132812 280.429688 123.914062 C 280.472656 123.191406 280.507812 122.472656 280.535156 121.746094 C 280.546875 121.503906 280.554688 121.261719 280.5625 121.019531 C 280.589844 120.09375 280.609375 119.167969 280.609375 118.234375 C 280.609375 117.445312 280.597656 116.65625 280.578125 115.871094 C 280.570312 115.652344 280.5625 115.429688 280.554688 115.210938 C 280.535156 114.628906 280.511719 114.042969 280.484375 113.460938 C 280.472656 113.238281 280.460938 113.015625 280.445312 112.789062 C 280.410156 112.171875 280.367188 111.554688 280.320312 110.941406 C 280.308594 110.777344 280.296875 110.617188 280.28125 110.457031 C 279.726562 103.789062 278.464844 97.320312 276.570312 91.125 C 276.535156 91.019531 276.503906 90.914062 276.46875 90.804688 C 276.273438 90.164062 276.066406 89.523438 275.851562 88.886719 C 275.804688 88.746094 275.761719 88.601562 275.710938 88.460938 C 275.488281 87.796875 275.253906 87.136719 275.015625 86.480469 C 274.925781 86.230469 274.828125 85.980469 274.734375 85.730469 C 274.554688 85.246094 274.371094 84.761719 274.183594 84.28125 C 274 83.820312 273.8125 83.359375 273.625 82.902344 C 273.550781 82.730469 273.480469 82.554688 273.410156 82.378906 C 273.175781 81.828125 272.941406 81.277344 272.699219 80.730469 C 272.695312 80.726562 272.695312 80.722656 272.691406 80.714844 C 267.128906 68.121094 258.769531 56.765625 248.03125 47.582031 C 247.917969 47.484375 247.792969 47.402344 247.667969 47.332031 C 247.164062 46.902344 246.652344 46.480469 246.136719 46.0625 C 246.035156 45.941406 245.921875 45.828125 245.792969 45.730469 C 245.691406 45.652344 245.585938 45.585938 245.472656 45.523438 C 234.171875 36.515625 220.730469 30.078125 206.050781 27.105469 C 206.027344 27.097656 206.003906 27.089844 205.980469 27.085938 C 205.335938 26.953125 204.6875 26.835938 204.039062 26.71875 C 204.011719 26.714844 203.984375 26.707031 203.960938 26.703125 C 203.359375 26.597656 202.757812 26.5 202.152344 26.402344 C 201.964844 26.375 201.78125 26.339844 201.59375 26.3125 C 201.136719 26.242188 200.675781 26.183594 200.21875 26.121094 C 199.886719 26.074219 199.558594 26.027344 199.226562 25.984375 C 198.886719 25.941406 198.542969 25.90625 198.203125 25.867188 C 197.761719 25.816406 197.320312 25.761719 196.875 25.71875 C 196.609375 25.691406 196.339844 25.671875 196.074219 25.648438 C 195.5625 25.601562 195.050781 25.550781 194.535156 25.515625 C 194.28125 25.496094 194.027344 25.484375 193.777344 25.464844 C 193.253906 25.429688 192.726562 25.394531 192.203125 25.367188 C 191.859375 25.351562 191.519531 25.34375 191.179688 25.328125 C 190.742188 25.3125 190.304688 25.292969 189.867188 25.28125 C 189.082031 25.261719 188.296875 25.25 187.511719 25.25 C 186.867188 25.25 186.226562 25.257812 185.582031 25.273438 C 185.351562 25.277344 185.121094 25.285156 184.886719 25.289062 C 184.484375 25.300781 184.082031 25.316406 183.675781 25.332031 C 183.386719 25.34375 183.097656 25.355469 182.808594 25.371094 C 182.476562 25.386719 182.148438 25.40625 181.816406 25.425781 C 181.484375 25.445312 181.152344 25.464844 180.820312 25.488281 C 180.601562 25.503906 180.378906 25.523438 180.160156 25.542969 C 178.699219 25.65625 177.246094 25.800781 175.800781 25.984375 C 175.730469 25.992188 175.660156 26 175.589844 26.007812 C 175.0625 26.078125 174.53125 26.148438 174.003906 26.226562 C 173.988281 26.226562 173.972656 26.230469 173.957031 26.234375 C 167.296875 27.203125 160.78125 28.886719 154.464844 31.28125 C 151.878906 17.214844 139.523438 6.519531 124.703125 6.519531 C 108.011719 6.519531 94.433594 20.082031 94.433594 36.753906 C 94.433594 38.300781 94.554688 39.863281 94.789062 41.398438 C 94.792969 41.425781 94.800781 41.453125 94.804688 41.480469 C 95.363281 44.84375 101.753906 57.191406 108.355469 69.308594 C 108.128906 69.667969 107.898438 70.023438 107.675781 70.390625 C 107.65625 70.417969 107.636719 70.445312 107.617188 70.472656 C 106.128906 72.953125 104.769531 75.496094 103.527344 78.09375 C 103.503906 78.136719 103.480469 78.183594 103.460938 78.230469 C 103.070312 79.046875 102.695312 79.867188 102.332031 80.695312 C 102.300781 80.769531 102.265625 80.84375 102.230469 80.917969 C 101.871094 81.734375 101.53125 82.558594 101.195312 83.382812 C 101.160156 83.46875 101.125 83.550781 101.09375 83.636719 C 100.761719 84.460938 100.445312 85.289062 100.140625 86.121094 C 100.105469 86.210938 100.074219 86.296875 100.042969 86.386719 C 99.738281 87.21875 99.449219 88.054688 99.167969 88.894531 C 99.136719 88.984375 99.109375 89.078125 99.078125 89.167969 C 98.800781 90.007812 98.539062 90.847656 98.289062 91.695312 C 98.257812 91.789062 98.230469 91.886719 98.203125 91.984375 C 97.953125 92.828125 97.71875 93.671875 97.492188 94.523438 C 97.46875 94.625 97.441406 94.726562 97.414062 94.828125 C 97.195312 95.675781 96.984375 96.523438 96.789062 97.375 C 96.765625 97.484375 96.742188 97.59375 96.71875 97.703125 C 96.523438 98.550781 96.34375 99.402344 96.175781 100.257812 C 96.152344 100.367188 96.132812 100.480469 96.113281 100.589844 C 95.945312 101.449219 95.789062 102.304688 95.648438 103.167969 C 95.632812 103.261719 95.621094 103.351562 95.605469 103.445312 C 95.464844 104.332031 95.328125 105.21875 95.210938 106.109375 C 95.210938 106.113281 95.210938 106.113281 95.210938 106.113281 C 94.6875 110.117188 94.414062 114.167969 94.414062 118.234375 C 94.414062 169.507812 136.179688 211.21875 187.511719 211.21875 C 205.300781 211.21875 221.9375 206.207031 236.089844 197.527344 Z M 253.777344 148.207031 L 244.992188 143.59375 L 236.207031 148.207031 L 237.882812 138.4375 L 230.777344 131.519531 L 240.597656 130.09375 L 244.992188 121.203125 L 249.382812 130.09375 L 259.203125 131.519531 L 252.097656 138.4375 Z M 229.195312 127.382812 C 227.585938 125.695312 225.925781 124.046875 224.261719 122.476562 C 223.304688 121.574219 223.265625 120.066406 224.167969 119.113281 C 225.070312 118.15625 226.578125 118.113281 227.535156 119.015625 C 229.261719 120.644531 230.976562 122.355469 232.644531 124.105469 C 233.550781 125.054688 233.515625 126.5625 232.5625 127.46875 C 232.101562 127.90625 231.511719 128.125 230.917969 128.125 C 230.289062 128.125 229.660156 127.875 229.195312 127.382812 Z M 99.507812 40.722656 C 99.503906 40.71875 99.503906 40.710938 99.503906 40.703125 C 99.300781 39.398438 99.199219 38.070312 99.199219 36.753906 C 99.199219 22.707031 110.640625 11.277344 124.703125 11.277344 C 138.765625 11.277344 150.207031 22.707031 150.207031 36.753906 C 150.207031 38.066406 150.105469 39.390625 149.902344 40.691406 C 149.902344 40.695312 149.902344 40.703125 149.902344 40.707031 C 149.292969 44.617188 134.902344 70.894531 124.703125 88.832031 C 114.515625 70.917969 100.152344 44.691406 99.507812 40.722656 Z M 157.964844 200.210938 C 158.757812 199.660156 159.503906 199.144531 160.246094 198.824219 C 160.9375 198.53125 161.769531 198.34375 162.652344 198.144531 C 164.300781 197.773438 166.171875 197.351562 167.78125 196.058594 C 170.066406 194.214844 170.851562 191.421875 171.542969 188.957031 C 172.253906 186.445312 172.765625 184.886719 173.953125 184.480469 C 174.324219 184.351562 174.863281 184.316406 175.433594 184.28125 C 176.351562 184.222656 177.390625 184.152344 178.472656 183.710938 C 180.914062 182.710938 182.121094 180.402344 182.921875 178.875 L 187.183594 170.722656 C 187.84375 169.464844 188.589844 168.039062 188.847656 166.335938 C 189.324219 163.175781 187.914062 159.816406 185.167969 157.566406 C 183.101562 155.871094 180.363281 154.808594 177.027344 154.410156 C 176.597656 154.359375 176.160156 154.3125 175.71875 154.269531 C 173.589844 154.058594 171.578125 153.859375 170.65625 152.738281 C 170.300781 152.308594 170.046875 151.667969 169.746094 150.925781 C 169.492188 150.285156 169.199219 149.558594 168.785156 148.847656 C 167.628906 146.867188 165.804688 145.535156 164.34375 144.59375 C 159.207031 141.285156 153.269531 139.351562 147.167969 138.996094 C 145.792969 138.917969 144.199219 138.96875 142.8125 139.957031 C 141.550781 140.859375 140.988281 142.191406 140.617188 143.070312 C 137.570312 150.273438 134.855469 157.898438 137.929688 165.058594 C 139.199219 168.003906 141.277344 170.34375 143.285156 172.609375 C 145.488281 175.089844 147.566406 177.429688 148.21875 180.226562 C 148.585938 181.789062 148.492188 183.578125 148.378906 185.132812 C 148.0625 189.375 147.542969 191.324219 146.597656 194.867188 C 146.488281 195.292969 146.367188 195.746094 146.242188 196.21875 C 118.273438 181.394531 99.179688 152.003906 99.179688 118.234375 C 99.179688 117.980469 99.1875 117.726562 99.191406 117.46875 C 100.4375 116.511719 102.878906 116.785156 104.261719 118.101562 C 106.324219 120.066406 106.757812 123.410156 106.757812 125.867188 C 106.757812 126.136719 106.753906 126.410156 106.753906 126.6875 C 106.726562 129.429688 106.695312 132.839844 109.113281 135.273438 C 111.378906 137.554688 114.363281 137.632812 116.996094 137.703125 C 118.578125 137.742188 120.070312 137.78125 121.175781 138.28125 C 122.273438 138.773438 123.222656 139.839844 124.226562 140.972656 C 124.976562 141.8125 125.75 142.679688 126.6875 143.460938 C 128.183594 144.699219 130.195312 145.394531 132.085938 145.394531 C 132.699219 145.394531 133.300781 145.320312 133.863281 145.167969 C 135.589844 144.707031 136.867188 143.578125 137.460938 141.980469 C 138.574219 138.988281 136.722656 136.546875 135.371094 134.761719 C 134.835938 134.054688 134.328125 133.390625 134.035156 132.78125 C 133.46875 131.609375 133.667969 130.039062 134.511719 129.046875 C 135.132812 128.320312 135.257812 127.296875 134.832031 126.445312 C 134.40625 125.59375 133.507812 125.078125 132.5625 125.128906 C 129.777344 125.292969 127.914062 124.832031 127.574219 123.902344 C 127.5 123.695312 127.453125 123.421875 127.703125 122.984375 C 128.265625 121.996094 129.8125 121.042969 131.304688 120.765625 C 132.011719 120.632812 132.769531 120.542969 133.570312 120.449219 C 136.222656 120.132812 139.230469 119.777344 141.546875 117.621094 C 143.226562 116.058594 143.984375 114.03125 144.652344 112.242188 C 144.921875 111.523438 145.175781 110.847656 145.46875 110.238281 C 146.875 107.332031 149.84375 104.859375 154.292969 102.886719 C 155.898438 102.171875 157.539062 101.570312 159.273438 100.929688 C 161.78125 100.007812 164.375 99.050781 166.84375 97.746094 C 168.371094 96.9375 170.441406 95.644531 171.585938 93.519531 C 172.011719 93.175781 172.324219 92.6875 172.433594 92.109375 C 172.507812 91.730469 172.476562 91.359375 172.375 91.015625 C 172.625 89.042969 172.109375 87.125 171.640625 85.738281 C 169.234375 78.621094 164.394531 72.507812 158.019531 68.527344 C 154.953125 66.609375 152.863281 67.136719 151.652344 67.914062 C 150.144531 68.878906 149.640625 70.484375 149.304688 71.546875 L 149.222656 71.816406 C 148.421875 74.289062 146.726562 76.242188 144.796875 76.90625 C 142.886719 77.566406 140.578125 76.789062 139.855469 75.242188 C 138.714844 72.796875 141.195312 69.40625 142.777344 67.605469 C 145.128906 64.925781 147.714844 62.417969 150.457031 60.140625 C 151.382812 59.375 152.003906 59.152344 152.25 59.113281 C 152.382812 59.324219 152.554688 59.828125 152.660156 60.144531 L 152.703125 60.261719 C 153.304688 62.015625 154.367188 64.519531 156.671875 65.984375 C 158.097656 66.890625 159.929688 67.199219 161.574219 66.804688 C 163.003906 66.460938 164.175781 65.617188 164.878906 64.429688 C 165.558594 63.273438 165.78125 61.875 165.558594 60.148438 C 165.242188 57.707031 164.277344 55.394531 162.765625 53.453125 C 162.078125 52.570312 161.304688 51.792969 160.5625 51.042969 C 159.1875 49.65625 157.996094 48.457031 157.769531 47.089844 C 157.691406 46.609375 157.722656 46.007812 157.757812 45.371094 C 157.785156 44.914062 157.808594 44.4375 157.800781 43.929688 C 157.757812 41.238281 156.773438 38.671875 154.960938 36.445312 C 154.957031 36.300781 154.953125 36.152344 154.949219 36.007812 C 155.242188 36.011719 155.535156 35.964844 155.824219 35.855469 C 156.839844 35.464844 157.867188 35.097656 158.894531 34.746094 C 158.871094 35.488281 158.859375 36.230469 158.863281 36.957031 C 158.871094 37.996094 158.882812 40.15625 160.375 41.71875 C 161.652344 43.0625 163.347656 43.308594 164.582031 43.488281 C 164.851562 43.53125 165.125 43.566406 165.386719 43.621094 C 168.746094 44.304688 170.75 48.304688 171.441406 51.523438 C 171.792969 53.15625 171.976562 54.839844 172.167969 56.617188 C 172.460938 59.328125 172.765625 62.132812 173.714844 64.875 C 174.742188 67.835938 176.347656 69.882812 178.488281 70.960938 C 179.410156 71.425781 180.457031 71.660156 181.503906 71.660156 C 182.265625 71.660156 183.03125 71.535156 183.746094 71.28125 C 185.234375 70.753906 186.390625 69.726562 187 68.378906 C 187.5 67.277344 187.550781 66.183594 187.59375 65.304688 C 187.609375 65.035156 187.621094 64.769531 187.648438 64.503906 C 187.972656 61.679688 190.769531 59.652344 191.957031 58.914062 C 193.320312 58.066406 194.8125 57.390625 196.394531 56.675781 C 197.683594 56.097656 199.011719 55.496094 200.304688 54.777344 C 201.570312 54.078125 203.136719 53.054688 204.03125 51.355469 C 204.996094 49.515625 204.851562 47.546875 204.734375 45.96875 L 204.703125 45.523438 C 204.402344 40.992188 205.339844 36.339844 207.347656 32.253906 C 219.925781 35.148438 231.488281 40.734375 241.386719 48.371094 C 239.824219 51.304688 236.992188 53.609375 234.019531 56.023438 C 231.757812 57.863281 229.421875 59.761719 227.5 62.058594 C 226.949219 62.71875 226.527344 63.421875 226.242188 64.152344 C 224.6875 68.152344 227.496094 70.785156 229.355469 72.527344 C 230.28125 73.394531 231.332031 74.375 231.214844 74.917969 C 231.125 75.363281 230.273438 75.914062 229.449219 76.449219 C 228.722656 76.921875 227.898438 77.460938 227.179688 78.171875 C 226.289062 79.046875 225.691406 80.070312 225.160156 80.972656 C 224.597656 81.929688 224.113281 82.753906 223.53125 83.042969 C 223.324219 83.144531 223 83.230469 222.652344 83.320312 C 222.179688 83.449219 221.640625 83.59375 221.074219 83.847656 C 219.082031 84.75 217.765625 86.796875 217.636719 89.191406 C 217.597656 89.902344 217.667969 90.589844 217.832031 91.238281 C 215.917969 92.019531 214.21875 93.339844 213.03125 95.042969 C 211.308594 97.511719 210.894531 100.410156 211.867188 103.199219 C 213.246094 107.160156 217.265625 109.554688 221.222656 108.769531 C 224.21875 108.171875 226.144531 106.070312 227.847656 104.214844 C 228.464844 103.539062 229.046875 102.90625 229.648438 102.371094 C 231.371094 100.839844 233.675781 99.894531 235.980469 99.773438 C 237.15625 99.710938 238.425781 100.253906 238.878906 100.792969 C 239.015625 100.953125 239.003906 101.003906 238.992188 101.066406 C 238.960938 101.203125 238.820312 101.480469 238.695312 101.722656 C 238.257812 102.597656 237.519531 104.0625 238.15625 105.875 C 238.585938 107.121094 239.550781 108.121094 240.863281 108.691406 C 243.148438 109.679688 245.269531 108.96875 246.972656 108.394531 C 247.984375 108.050781 248.949219 107.726562 249.546875 107.90625 C 250.171875 108.09375 250.925781 108.921875 251.648438 109.726562 C 253.03125 111.25 254.917969 113.335938 257.882812 112.796875 C 258.054688 112.765625 258.222656 112.726562 258.390625 112.679688 C 258.765625 112.570312 259.003906 112.773438 259.066406 112.835938 C 259.222656 112.996094 259.203125 113.140625 259.167969 113.261719 C 258.855469 114.277344 258.441406 114.59375 258.160156 114.738281 C 256.484375 115.613281 252.34375 114.289062 248.339844 113.003906 C 243.113281 111.332031 237.195312 109.433594 231.242188 109.988281 C 227.035156 110.378906 223.316406 111.210938 220.042969 112.480469 C 218.867188 111.535156 217.679688 110.609375 216.488281 109.71875 C 215.433594 108.929688 213.941406 109.148438 213.15625 110.199219 C 212.367188 111.25 212.582031 112.742188 213.636719 113.527344 C 214.195312 113.949219 214.757812 114.378906 215.320312 114.8125 C 213.433594 115.976562 211.738281 117.34375 210.226562 118.921875 C 208.394531 120.832031 206.804688 123.195312 205.492188 125.949219 C 204.648438 127.71875 204.195312 129.65625 204.148438 131.707031 C 204.066406 135.113281 204.226562 139.535156 206.203125 143.527344 C 209.636719 150.457031 218.652344 154.054688 226.3125 151.539062 C 226.929688 151.335938 227.398438 151.617188 227.570312 151.746094 C 227.78125 151.902344 228.132812 152.261719 228.113281 152.867188 C 228.101562 153.230469 228.082031 153.59375 228.0625 153.953125 C 228.027344 154.628906 227.992188 155.320312 227.992188 156.003906 C 228.007812 158.234375 228.558594 160.277344 229.09375 162.253906 C 229.363281 163.246094 229.613281 164.183594 229.792969 165.113281 C 230.476562 168.667969 230.117188 172.351562 229.742188 176.253906 C 229.5625 178.070312 229.382812 179.949219 229.3125 181.828125 C 229.175781 185.480469 229.558594 190.386719 231.820312 194.535156 C 218.785156 202.113281 203.648438 206.460938 187.511719 206.460938 C 176.730469 206.460938 166.394531 204.519531 156.835938 200.972656 C 157.230469 200.71875 157.609375 200.457031 157.964844 200.210938 Z M 157.964844 200.210938 " fill-opacity="1" fill-rule="nonzero"/><path fill="rgb(0%, 0%, 0%)" d="M 140.832031 33.222656 C 140.832031 24.339844 133.597656 17.113281 124.703125 17.113281 C 115.808594 17.113281 108.574219 24.339844 108.574219 33.222656 C 108.574219 42.105469 115.808594 49.332031 124.703125 49.332031 C 133.597656 49.332031 140.832031 42.105469 140.832031 33.222656 Z M 140.832031 33.222656 " fill-opacity="1" fill-rule="nonzero"/><path fill="rgb(0%, 0%, 0%)" d="M 83.304688 104.550781 C 83.429688 104.570312 83.550781 104.578125 83.671875 104.578125 C 84.828125 104.578125 85.839844 103.738281 86.023438 102.5625 C 86.375 100.269531 86.808594 97.964844 87.316406 95.707031 C 87.601562 94.425781 86.796875 93.152344 85.511719 92.867188 C 84.226562 92.578125 82.953125 93.386719 82.667969 94.667969 C 82.136719 97.027344 81.679688 99.441406 81.3125 101.839844 C 81.113281 103.136719 82.007812 104.351562 83.304688 104.550781 Z M 83.304688 104.550781 " fill-opacity="1" fill-rule="nonzero"/><g clip-path="url(#id2)"><path fill="rgb(0%, 0%, 0%)" d="M 82.421875 118.792969 C 82.4375 118.792969 82.449219 118.792969 82.464844 118.792969 C 83.761719 118.792969 84.824219 117.753906 84.847656 116.453125 C 84.886719 114.132812 85.003906 111.789062 85.199219 109.484375 C 85.308594 108.175781 84.335938 107.027344 83.027344 106.914062 C 81.714844 106.808594 80.5625 107.777344 80.453125 109.085938 C 80.25 111.492188 80.125 113.945312 80.082031 116.371094 C 80.058594 117.6875 81.109375 118.769531 82.421875 118.792969 Z M 82.421875 118.792969 " fill-opacity="1" fill-rule="nonzero"/></g><path fill="rgb(0%, 0%, 0%)" d="M 86.113281 90.5625 C 86.339844 90.628906 86.566406 90.660156 86.792969 90.660156 C 87.820312 90.660156 88.765625 89.992188 89.074219 88.960938 C 89.734375 86.738281 90.480469 84.515625 91.292969 82.347656 C 91.75 81.117188 91.125 79.746094 89.894531 79.285156 C 88.664062 78.824219 87.289062 79.449219 86.828125 80.683594 C 85.980469 82.953125 85.199219 85.28125 84.507812 87.601562 C 84.132812 88.863281 84.851562 90.1875 86.113281 90.5625 Z M 86.113281 90.5625 " fill-opacity="1" fill-rule="nonzero"/><g clip-path="url(#id3)"><path fill="rgb(0%, 0%, 0%)" d="M 83.457031 133.019531 C 84.761719 132.867188 85.695312 131.683594 85.542969 130.378906 C 85.269531 128.082031 85.074219 125.746094 84.960938 123.433594 C 84.894531 122.121094 83.785156 121.101562 82.460938 121.175781 C 81.148438 121.242188 80.136719 122.355469 80.203125 123.667969 C 80.324219 126.089844 80.527344 128.535156 80.8125 130.933594 C 80.953125 132.144531 81.984375 133.035156 83.171875 133.035156 C 83.265625 133.035156 83.359375 133.03125 83.457031 133.019531 Z M 83.457031 133.019531 " fill-opacity="1" fill-rule="nonzero"/></g><path fill="rgb(0%, 0%, 0%)" d="M 90.804688 77.085938 C 91.125 77.230469 91.457031 77.300781 91.789062 77.300781 C 92.691406 77.300781 93.558594 76.78125 93.957031 75.902344 C 94.914062 73.796875 95.957031 71.695312 97.058594 69.65625 C 97.683594 68.496094 97.25 67.054688 96.089844 66.429688 C 94.933594 65.808594 93.488281 66.242188 92.863281 67.398438 C 91.710938 69.53125 90.621094 71.730469 89.617188 73.9375 C 89.074219 75.132812 89.605469 76.542969 90.804688 77.085938 Z M 90.804688 77.085938 " fill-opacity="1" fill-rule="nonzero"/><path fill="rgb(0%, 0%, 0%)" d="M 86.40625 146.96875 C 87.679688 146.640625 88.445312 145.339844 88.113281 144.070312 C 87.535156 141.832031 87.023438 139.542969 86.59375 137.269531 C 86.351562 135.976562 85.105469 135.125 83.8125 135.367188 C 82.519531 135.609375 81.667969 136.851562 81.914062 138.144531 C 82.359375 140.527344 82.894531 142.921875 83.503906 145.265625 C 83.78125 146.335938 84.75 147.046875 85.808594 147.046875 C 86.007812 147.046875 86.207031 147.023438 86.40625 146.96875 Z M 86.40625 146.96875 " fill-opacity="1" fill-rule="nonzero"/><path fill="rgb(0%, 0%, 0%)" d="M 92.535156 157.285156 C 91.652344 155.144531 90.832031 152.949219 90.097656 150.753906 C 89.679688 149.507812 88.332031 148.832031 87.085938 149.25 C 85.835938 149.664062 85.164062 151.011719 85.578125 152.261719 C 86.347656 154.558594 87.207031 156.859375 88.128906 159.097656 C 88.507812 160.015625 89.398438 160.570312 90.332031 160.570312 C 90.636719 160.570312 90.941406 160.511719 91.238281 160.390625 C 92.457031 159.890625 93.035156 158.5 92.535156 157.285156 Z M 92.535156 157.285156 " fill-opacity="1" fill-rule="nonzero"/><path fill="rgb(0%, 0%, 0%)" d="M 102.4375 175.679688 C 101.699219 174.589844 100.21875 174.304688 99.128906 175.042969 C 98.039062 175.78125 97.753906 177.261719 98.492188 178.347656 C 99.851562 180.351562 101.296875 182.335938 102.792969 184.246094 C 103.261719 184.847656 103.960938 185.160156 104.667969 185.160156 C 105.183594 185.160156 105.699219 184.996094 106.136719 184.65625 C 107.171875 183.847656 107.355469 182.351562 106.546875 181.316406 C 105.117188 179.492188 103.734375 177.59375 102.4375 175.679688 Z M 102.4375 175.679688 " fill-opacity="1" fill-rule="nonzero"/><path fill="rgb(0%, 0%, 0%)" d="M 98.71875 169.777344 C 97.550781 167.777344 96.441406 165.710938 95.414062 163.636719 C 94.828125 162.457031 93.402344 161.976562 92.222656 162.558594 C 91.042969 163.140625 90.558594 164.566406 91.140625 165.746094 C 92.21875 167.914062 93.382812 170.078125 94.601562 172.171875 C 95.042969 172.929688 95.84375 173.351562 96.664062 173.351562 C 97.070312 173.351562 97.484375 173.25 97.859375 173.027344 C 98.996094 172.367188 99.382812 170.910156 98.71875 169.777344 Z M 98.71875 169.777344 " fill-opacity="1" fill-rule="nonzero"/><g clip-path="url(#id4)"><path fill="rgb(0%, 0%, 0%)" d="M 264.238281 43.109375 C 243.863281 22.359375 216.566406 10.917969 187.511719 10.917969 C 184.601562 10.917969 181.671875 11.039062 178.773438 11.273438 L 180.183594 7.464844 C 180.660156 6.1875 179.242188 5.035156 178.085938 5.757812 L 163.34375 14.976562 C 162.257812 15.65625 162.542969 17.308594 163.792969 17.582031 L 180.785156 21.3125 C 182.117188 21.605469 183.0625 20.042969 182.1875 19 L 179.648438 15.976562 C 182.261719 15.777344 184.894531 15.675781 187.511719 15.675781 C 214.9375 15.675781 240.726562 26.34375 260.117188 45.714844 C 279.511719 65.085938 290.195312 90.839844 290.195312 118.234375 C 290.195312 145.628906 279.511719 171.382812 260.117188 190.753906 C 240.722656 210.125 214.9375 220.792969 187.511719 220.792969 C 165.199219 220.792969 143.984375 213.769531 126.15625 200.480469 C 125.042969 199.648438 123.4375 199.9375 122.695312 201.152344 C 122.046875 202.210938 122.386719 203.609375 123.382812 204.347656 C 142.023438 218.21875 164.199219 225.550781 187.511719 225.550781 C 216.210938 225.550781 243.195312 214.390625 263.488281 194.121094 C 283.578125 174.050781 294.734375 147.4375 294.953125 119.089844 C 295.175781 90.75 284.109375 63.34375 264.238281 43.109375 Z M 264.238281 43.109375 " fill-opacity="1" fill-rule="nonzero"/></g><g fill="rgb(0%, 0%, 0%)" fill-opacity="1"><g transform="translate(82.978723, 302.138387)"><g><path d="M 1.71875 -20.28125 C 1.71875 -24.28125 2.523438 -27.835938 4.140625 -30.953125 C 5.753906 -34.078125 8.066406 -36.503906 11.078125 -38.234375 C 14.085938 -39.972656 17.628906 -40.84375 21.703125 -40.84375 C 25.210938 -40.84375 28.347656 -40.1875 31.109375 -38.875 C 33.867188 -37.5625 36.113281 -35.703125 37.84375 -33.296875 C 39.570312 -30.898438 40.722656 -28.101562 41.296875 -24.90625 L 27.9375 -24.90625 C 27.320312 -26.238281 26.453125 -27.273438 25.328125 -28.015625 C 24.210938 -28.765625 22.929688 -29.140625 21.484375 -29.140625 C 19.347656 -29.140625 17.660156 -28.335938 16.421875 -26.734375 C 15.179688 -25.128906 14.5625 -22.976562 14.5625 -20.28125 C 14.5625 -17.570312 15.179688 -15.414062 16.421875 -13.8125 C 17.660156 -12.21875 19.347656 -11.421875 21.484375 -11.421875 C 22.929688 -11.421875 24.210938 -11.789062 25.328125 -12.53125 C 26.453125 -13.28125 27.320312 -14.320312 27.9375 -15.65625 L 41.296875 -15.65625 C 40.722656 -12.457031 39.570312 -9.65625 37.84375 -7.25 C 36.113281 -4.851562 33.867188 -3 31.109375 -1.6875 C 28.347656 -0.375 25.210938 0.28125 21.703125 0.28125 C 17.628906 0.28125 14.085938 -0.582031 11.078125 -2.3125 C 8.066406 -4.039062 5.753906 -6.46875 4.140625 -9.59375 C 2.523438 -12.71875 1.71875 -16.28125 1.71875 -20.28125 Z M 1.71875 -20.28125 "/></g></g></g><g fill="rgb(0%, 0%, 0%)" fill-opacity="1"><g transform="translate(125.987894, 302.138387)"><g><path d="M 23.1875 0 L 15.59375 -14.515625 L 15.53125 -14.515625 L 15.53125 0 L 2.859375 0 L 2.859375 -40.4375 L 21.703125 -40.4375 C 24.984375 -40.4375 27.785156 -39.851562 30.109375 -38.6875 C 32.429688 -37.53125 34.171875 -35.953125 35.328125 -33.953125 C 36.492188 -31.960938 37.078125 -29.707031 37.078125 -27.1875 C 37.078125 -24.488281 36.320312 -22.09375 34.8125 -20 C 33.3125 -17.90625 31.148438 -16.398438 28.328125 -15.484375 L 37.125 0 Z M 15.53125 -22.96875 L 20.5625 -22.96875 C 21.78125 -22.96875 22.691406 -23.242188 23.296875 -23.796875 C 23.910156 -24.347656 24.21875 -25.210938 24.21875 -26.390625 C 24.21875 -27.453125 23.898438 -28.285156 23.265625 -28.890625 C 22.640625 -29.503906 21.738281 -29.8125 20.5625 -29.8125 L 15.53125 -29.8125 Z M 15.53125 -22.96875 "/></g></g></g><g fill="rgb(0%, 0%, 0%)" fill-opacity="1"><g transform="translate(164.256351, 302.138387)"><g><path d="M 15.53125 -30.328125 L 15.53125 -25.359375 L 28.109375 -25.359375 L 28.109375 -15.828125 L 15.53125 -15.828125 L 15.53125 -10.109375 L 29.8125 -10.109375 L 29.8125 0 L 2.859375 0 L 2.859375 -40.4375 L 29.8125 -40.4375 L 29.8125 -30.328125 Z M 15.53125 -30.328125 "/></g></g></g><g fill="rgb(0%, 0%, 0%)" fill-opacity="1"><g transform="translate(196.013463, 302.138387)"><g><path d="M 19.703125 -40.4375 C 23.929688 -40.4375 27.632812 -39.578125 30.8125 -37.859375 C 34 -36.148438 36.445312 -33.769531 38.15625 -30.71875 C 39.875 -27.675781 40.734375 -24.21875 40.734375 -20.34375 C 40.734375 -16.488281 39.875 -13.019531 38.15625 -9.9375 C 36.445312 -6.851562 34 -4.425781 30.8125 -2.65625 C 27.632812 -0.882812 23.929688 0 19.703125 0 L 2.859375 0 L 2.859375 -40.4375 Z M 18.5625 -11.3125 C 21.414062 -11.3125 23.679688 -12.09375 25.359375 -13.65625 C 27.035156 -15.21875 27.875 -17.445312 27.875 -20.34375 C 27.875 -23.226562 27.035156 -25.453125 25.359375 -27.015625 C 23.679688 -28.578125 21.414062 -29.359375 18.5625 -29.359375 L 15.53125 -29.359375 L 15.53125 -11.3125 Z M 18.5625 -11.3125 "/></g></g></g><g fill="rgb(0%, 0%, 0%)" fill-opacity="1"><g transform="translate(238.451472, 302.138387)"><g><path d="M 15.53125 -40.4375 L 15.53125 0 L 2.859375 0 L 2.859375 -40.4375 Z M 15.53125 -40.4375 "/></g></g></g><g fill="rgb(0%, 0%, 0%)" fill-opacity="1"><g transform="translate(256.843179, 302.138387)"><g><path d="M 34.625 -40.4375 L 34.625 -30.390625 L 23.875 -30.390625 L 23.875 0 L 11.203125 0 L 11.203125 -30.390625 L 0.578125 -30.390625 L 0.578125 -40.4375 Z M 34.625 -40.4375 "/></g></g></g><g fill="rgb(0%, 0%, 0%)" fill-opacity="1"><g transform="translate(35.88107, 358.388384)"><g><path d="M 15.53125 -9.59375 L 27.765625 -9.59375 L 27.765625 0 L 2.859375 0 L 2.859375 -40.4375 L 15.53125 -40.4375 Z M 15.53125 -9.59375 "/></g></g></g><g fill="rgb(0%, 0%, 0%)" fill-opacity="1"><g transform="translate(64.782321, 358.388384)"><g><path d="M 22.5625 0.40625 C 18.757812 0.40625 15.265625 -0.488281 12.078125 -2.28125 C 8.898438 -4.070312 6.378906 -6.546875 4.515625 -9.703125 C 2.648438 -12.867188 1.71875 -16.429688 1.71875 -20.390625 C 1.71875 -24.347656 2.648438 -27.90625 4.515625 -31.0625 C 6.378906 -34.226562 8.898438 -36.695312 12.078125 -38.46875 C 15.265625 -40.238281 18.757812 -41.125 22.5625 -41.125 C 26.375 -41.125 29.859375 -40.238281 33.015625 -38.46875 C 36.179688 -36.695312 38.6875 -34.226562 40.53125 -31.0625 C 42.375 -27.90625 43.296875 -24.347656 43.296875 -20.390625 C 43.296875 -16.429688 42.375 -12.867188 40.53125 -9.703125 C 38.6875 -6.546875 36.171875 -4.070312 32.984375 -2.28125 C 29.804688 -0.488281 26.332031 0.40625 22.5625 0.40625 Z M 22.5625 -11.421875 C 25.070312 -11.421875 27.015625 -12.226562 28.390625 -13.84375 C 29.765625 -15.46875 30.453125 -17.648438 30.453125 -20.390625 C 30.453125 -23.171875 29.765625 -25.367188 28.390625 -26.984375 C 27.015625 -28.609375 25.070312 -29.421875 22.5625 -29.421875 C 20.007812 -29.421875 18.046875 -28.609375 16.671875 -26.984375 C 15.304688 -25.367188 14.625 -23.171875 14.625 -20.390625 C 14.625 -17.648438 15.304688 -15.46875 16.671875 -13.84375 C 18.046875 -12.226562 20.007812 -11.421875 22.5625 -11.421875 Z M 22.5625 -11.421875 "/></g></g></g><g fill="rgb(0%, 0%, 0%)" fill-opacity="1"><g transform="translate(109.790592, 358.388384)"><g><path d="M 27.65625 -26.625 C 27.15625 -27.414062 26.445312 -28.03125 25.53125 -28.46875 C 24.613281 -28.914062 23.507812 -29.140625 22.21875 -29.140625 C 19.78125 -29.140625 17.894531 -28.347656 16.5625 -26.765625 C 15.226562 -25.179688 14.5625 -23.019531 14.5625 -20.28125 C 14.5625 -17.113281 15.300781 -14.75 16.78125 -13.1875 C 18.269531 -11.632812 20.5625 -10.859375 23.65625 -10.859375 C 26.582031 -10.859375 28.941406 -12.035156 30.734375 -14.390625 L 20.625 -14.390625 L 20.625 -23.359375 L 41.25 -23.359375 L 41.25 -10.6875 C 39.488281 -7.675781 37.066406 -5.09375 33.984375 -2.9375 C 30.898438 -0.789062 27 0.28125 22.28125 0.28125 C 18.09375 0.28125 14.445312 -0.582031 11.34375 -2.3125 C 8.238281 -4.039062 5.859375 -6.46875 4.203125 -9.59375 C 2.546875 -12.71875 1.71875 -16.28125 1.71875 -20.28125 C 1.71875 -24.28125 2.546875 -27.835938 4.203125 -30.953125 C 5.859375 -34.078125 8.226562 -36.503906 11.3125 -38.234375 C 14.394531 -39.972656 18.015625 -40.84375 22.171875 -40.84375 C 27.460938 -40.84375 31.773438 -39.566406 35.109375 -37.015625 C 38.441406 -34.460938 40.410156 -31 41.015625 -26.625 Z M 27.65625 -26.625 "/></g></g></g><g fill="rgb(0%, 0%, 0%)" fill-opacity="1"><g transform="translate(152.742657, 358.388384)"><g><path d="M 15.53125 -40.4375 L 15.53125 0 L 2.859375 0 L 2.859375 -40.4375 Z M 15.53125 -40.4375 "/></g></g></g><g fill="rgb(0%, 0%, 0%)" fill-opacity="1"><g transform="translate(171.134364, 358.388384)"><g><path d="M 18.6875 0.40625 C 13.84375 0.40625 9.847656 -0.722656 6.703125 -2.984375 C 3.566406 -5.253906 1.863281 -8.582031 1.59375 -12.96875 L 15.078125 -12.96875 C 15.265625 -10.644531 16.296875 -9.484375 18.171875 -9.484375 C 18.847656 -9.484375 19.425781 -9.644531 19.90625 -9.96875 C 20.382812 -10.289062 20.625 -10.796875 20.625 -11.484375 C 20.625 -12.429688 20.109375 -13.203125 19.078125 -13.796875 C 18.046875 -14.390625 16.445312 -15.066406 14.28125 -15.828125 C 11.6875 -16.734375 9.539062 -17.625 7.84375 -18.5 C 6.15625 -19.382812 4.703125 -20.660156 3.484375 -22.328125 C 2.265625 -24.003906 1.675781 -26.160156 1.71875 -28.796875 C 1.71875 -31.421875 2.390625 -33.65625 3.734375 -35.5 C 5.085938 -37.351562 6.9375 -38.753906 9.28125 -39.703125 C 11.625 -40.648438 14.257812 -41.125 17.1875 -41.125 C 22.144531 -41.125 26.078125 -39.984375 28.984375 -37.703125 C 31.898438 -35.421875 33.4375 -32.203125 33.59375 -28.046875 L 19.9375 -28.046875 C 19.894531 -29.191406 19.609375 -30.007812 19.078125 -30.5 C 18.546875 -31 17.898438 -31.25 17.140625 -31.25 C 16.609375 -31.25 16.171875 -31.066406 15.828125 -30.703125 C 15.484375 -30.335938 15.3125 -29.832031 15.3125 -29.1875 C 15.3125 -28.269531 15.816406 -27.515625 16.828125 -26.921875 C 17.835938 -26.335938 19.445312 -25.628906 21.65625 -24.796875 C 24.207031 -23.835938 26.3125 -22.921875 27.96875 -22.046875 C 29.625 -21.171875 31.0625 -19.953125 32.28125 -18.390625 C 33.5 -16.828125 34.109375 -14.867188 34.109375 -12.515625 C 34.109375 -10.035156 33.5 -7.8125 32.28125 -5.84375 C 31.0625 -3.882812 29.289062 -2.351562 26.96875 -1.25 C 24.644531 -0.144531 21.882812 0.40625 18.6875 0.40625 Z M 18.6875 0.40625 "/></g></g></g><g fill="rgb(0%, 0%, 0%)" fill-opacity="1"><g transform="translate(206.832547, 358.388384)"><g><path d="M 34.625 -40.4375 L 34.625 -30.390625 L 23.875 -30.390625 L 23.875 0 L 11.203125 0 L 11.203125 -30.390625 L 0.578125 -30.390625 L 0.578125 -40.4375 Z M 34.625 -40.4375 "/></g></g></g><g fill="rgb(0%, 0%, 0%)" fill-opacity="1"><g transform="translate(242.016684, 358.388384)"><g><path d="M 15.53125 -40.4375 L 15.53125 0 L 2.859375 0 L 2.859375 -40.4375 Z M 15.53125 -40.4375 "/></g></g></g><g fill="rgb(0%, 0%, 0%)" fill-opacity="1"><g transform="translate(260.408391, 358.388384)"><g><path d="M 1.71875 -20.28125 C 1.71875 -24.28125 2.523438 -27.835938 4.140625 -30.953125 C 5.753906 -34.078125 8.066406 -36.503906 11.078125 -38.234375 C 14.085938 -39.972656 17.628906 -40.84375 21.703125 -40.84375 C 25.210938 -40.84375 28.347656 -40.1875 31.109375 -38.875 C 33.867188 -37.5625 36.113281 -35.703125 37.84375 -33.296875 C 39.570312 -30.898438 40.722656 -28.101562 41.296875 -24.90625 L 27.9375 -24.90625 C 27.320312 -26.238281 26.453125 -27.273438 25.328125 -28.015625 C 24.210938 -28.765625 22.929688 -29.140625 21.484375 -29.140625 C 19.347656 -29.140625 17.660156 -28.335938 16.421875 -26.734375 C 15.179688 -25.128906 14.5625 -22.976562 14.5625 -20.28125 C 14.5625 -17.570312 15.179688 -15.414062 16.421875 -13.8125 C 17.660156 -12.21875 19.347656 -11.421875 21.484375 -11.421875 C 22.929688 -11.421875 24.210938 -11.789062 25.328125 -12.53125 C 26.453125 -13.28125 27.320312 -14.320312 27.9375 -15.65625 L 41.296875 -15.65625 C 40.722656 -12.457031 39.570312 -9.65625 37.84375 -7.25 C 36.113281 -4.851562 33.867188 -3 31.109375 -1.6875 C 28.347656 -0.375 25.210938 0.28125 21.703125 0.28125 C 17.628906 0.28125 14.085938 -0.582031 11.078125 -2.3125 C 8.066406 -4.039062 5.753906 -6.46875 4.140625 -9.59375 C 2.523438 -12.71875 1.71875 -16.28125 1.71875 -20.28125 Z M 1.71875 -20.28125 "/></g></g></g><g fill="rgb(0%, 0%, 0%)" fill-opacity="1"><g transform="translate(303.417552, 358.388384)"><g><path d="M 18.6875 0.40625 C 13.84375 0.40625 9.847656 -0.722656 6.703125 -2.984375 C 3.566406 -5.253906 1.863281 -8.582031 1.59375 -12.96875 L 15.078125 -12.96875 C 15.265625 -10.644531 16.296875 -9.484375 18.171875 -9.484375 C 18.847656 -9.484375 19.425781 -9.644531 19.90625 -9.96875 C 20.382812 -10.289062 20.625 -10.796875 20.625 -11.484375 C 20.625 -12.429688 20.109375 -13.203125 19.078125 -13.796875 C 18.046875 -14.390625 16.445312 -15.066406 14.28125 -15.828125 C 11.6875 -16.734375 9.539062 -17.625 7.84375 -18.5 C 6.15625 -19.382812 4.703125 -20.660156 3.484375 -22.328125 C 2.265625 -24.003906 1.675781 -26.160156 1.71875 -28.796875 C 1.71875 -31.421875 2.390625 -33.65625 3.734375 -35.5 C 5.085938 -37.351562 6.9375 -38.753906 9.28125 -39.703125 C 11.625 -40.648438 14.257812 -41.125 17.1875 -41.125 C 22.144531 -41.125 26.078125 -39.984375 28.984375 -37.703125 C 31.898438 -35.421875 33.4375 -32.203125 33.59375 -28.046875 L 19.9375 -28.046875 C 19.894531 -29.191406 19.609375 -30.007812 19.078125 -30.5 C 18.546875 -31 17.898438 -31.25 17.140625 -31.25 C 16.609375 -31.25 16.171875 -31.066406 15.828125 -30.703125 C 15.484375 -30.335938 15.3125 -29.832031 15.3125 -29.1875 C 15.3125 -28.269531 15.816406 -27.515625 16.828125 -26.921875 C 17.835938 -26.335938 19.445312 -25.628906 21.65625 -24.796875 C 24.207031 -23.835938 26.3125 -22.921875 27.96875 -22.046875 C 29.625 -21.171875 31.0625 -19.953125 32.28125 -18.390625 C 33.5 -16.828125 34.109375 -14.867188 34.109375 -12.515625 C 34.109375 -10.035156 33.5 -7.8125 32.28125 -5.84375 C 31.0625 -3.882812 29.289062 -2.351562 26.96875 -1.25 C 24.644531 -0.144531 21.882812 0.40625 18.6875 0.40625 Z M 18.6875 0.40625 "/></g></g></g></svg>